<svg width="179" height="699" viewBox="0 0 179 699" fill="none" xmlns="http://www.w3.org/2000/svg">
<g id="Group 7">
<path id="14" fill-rule="evenodd" clip-rule="evenodd" d="M56.3806 111.941H32.7637L32.7637 47.7102L32.993 37.1569L33.3752 25.6165C29.4517 29.5139 26.7257 32.07 25.1971 33.2848L12.3569 43.5344L0.96875 29.4127L36.9674 0.941406L56.3806 0.941406L56.3806 111.941ZM167.969 88.9366H154.517V111.941L131.435 111.941V88.9366L83.7427 88.9366L83.7427 72.6131L132.734 0.941406L154.517 0.941406L154.517 70.715H167.969V88.9366ZM131.435 51.886L131.435 70.715H104.532L125.015 39.966C127.665 36.018 129.932 31.9688 131.817 27.8183H132.429C132.276 28.78 132.072 32.2471 131.817 38.2198C131.562 44.1925 131.435 48.7478 131.435 51.886Z" fill="#960043"/>
<path id="&#208;&#163;&#208;&#161;&#208;&#159;&#208;&#149;&#208;&#165;&#208;&#144;" fill-rule="evenodd" clip-rule="evenodd" d="M156.24 573.718C156.24 587.038 152.742 596.498 145.747 602.099C138.751 607.699 128.66 610.499 115.474 610.499H71.386C57.8978 610.499 47.7064 607.724 40.8113 602.174C33.9162 596.624 30.4688 587.139 30.4688 573.718C30.4688 560.903 33.5388 551.821 39.6789 546.473C45.819 541.125 54.5258 538.451 65.7995 538.451H76.3685V564.939H64.1387C59.4077 564.939 55.7841 565.444 53.2677 566.453C50.7512 567.462 49.493 569.884 49.493 573.718C49.493 577.553 50.8267 580.075 53.4941 581.286C56.1616 582.497 59.8607 583.103 64.5916 583.103H122.117C126.949 583.103 130.648 582.472 133.215 581.211C135.782 579.949 137.065 577.452 137.065 573.718C137.065 569.984 135.782 567.588 133.215 566.528C130.648 565.469 126.949 564.939 122.117 564.939H109.284V538.451H119.853C131.328 538.451 140.261 541.125 146.653 546.473C153.044 551.821 156.24 560.903 156.24 573.718ZM160.619 693.749C160.82 685.878 159.965 679.975 158.052 676.04C156.14 672.104 152.717 670.136 147.785 670.136C146.275 670.136 144.363 670.389 142.048 670.893L32.1296 698.441V673.315L82.408 662.72L115.172 657.725L82.257 654.092L32.1296 645.162L32.1296 619.733L146.124 645.162C155.485 647.18 162.456 649.854 167.036 653.184C171.616 656.514 174.711 661.231 176.321 667.336C177.932 673.441 178.637 682.245 178.435 693.749H160.619ZM32.1296 450.206V523.617H154.428V496.977H51.4558V476.846H154.428V450.206H32.1296ZM32.1296 432.042L32.1296 376.946H50.5499L50.5499 404.948H80.8981V383.606H99.6204V404.948H136.159V376.643H154.428V432.042H32.1296ZM32.1296 371.346L88.5984 348.641L154.428 372.405L154.428 350.003L117.89 336.835L154.428 321.85V296.421L95.6948 320.336L32.1296 298.843V321.396L65.1956 332.294L32.1296 345.765V371.346ZM32.1296 269.175V238.297L154.428 215.441V240.416L128.61 244.503V262.515L154.428 266.754V292.334L32.1296 269.175ZM64.7426 253.585L112.454 247.076V260.094L64.7426 253.585Z" fill="#960043"/>
<path id="&#208;&#155;&#208;&#149;&#208;&#162;" fill-rule="evenodd" clip-rule="evenodd" d="M25.9687 191.119C32.5621 191.119 33.0682 186.855 33.0682 183.472L33.0682 126.941L78.191 126.941L78.191 202.941H61.4816L61.4816 139.796H48.2455L48.2455 188.82C48.2455 194.169 46.0707 197.171 43.0355 199.517C40.0002 201.862 36.5703 202.941 25.9687 202.941L25.9687 191.119ZM85.9688 126.941L120.225 126.941V138.388H102.815L102.815 157.248H116.084V168.882H102.815V191.588L120.413 191.588V202.941L85.9687 202.941L85.9688 126.941ZM125.969 139.42H137.505V202.941H154.527L154.527 139.42H165.969V126.941L125.969 126.941V139.42Z" fill="#960043"/>
</g>
</svg>
