<svg xmlns="http://www.w3.org/2000/svg" width="79" height="40" viewBox="0 0 79 40">
    <g fill="#4C5B70" fill-rule="nonzero">
        <path d="M34.67 21.97h7.059v6.257l3.95-6.256h7.731l-5.966 8.232 6.218 9.138h-8.235l-3.698-6.586v6.586h-7.06zM32.821 38.766c-1.092.576-2.605 1.07-4.79 1.07-5.799 0-9.917-3.623-9.917-9.22 0-6.34 5.295-9.221 9.749-9.221 1.428 0 3.445.33 4.874 1.317v6.092c-1.093-1.317-2.69-1.81-3.95-1.81-2.605 0-3.866 1.728-3.866 3.786 0 2.223 1.681 3.458 3.866 3.458 1.597 0 2.942-.659 3.95-1.565v6.093h.084zM8.618 28.475v-2.47h.672c1.26 0 1.597.659 1.597 1.235 0 .576-.337 1.235-1.597 1.235h-.672zm-7.06-6.668v17.37h10.505c4.958 0 5.967-3.046 5.967-4.857 0-2.387-1.68-4.116-3.95-4.446 1.513-.411 3.11-1.646 3.11-3.622 0-1.317-.505-4.445-5.631-4.445h-10zm7.06 13.254v-2.635h.84c.672 0 1.765.083 1.765 1.318 0 1.234-1.093 1.317-1.765 1.317h-.84zM78.126 18.112l-2.017.082-.168-.412-1.933-.164v-.33l-2.1-.082.336.741.924.082-.084-.164.84.494 1.345.329h1.008l2.27-.247zM73 16.465l-.924-.165s0-.33-.337-.494c-.336-.164-.252 0-.252 0l-.336-.247-.672-.082-.084-.494h-.84v-.247l-.673-.082-.252-.247.084-.247-.168-.247-.84-.412-.757-.247-.42-.494-.504-.411-.757-.741-1.68-.577-1.681-1.07-.672-.247-.673-.329-1.512-.74-2.185-1.236-4.875-2.223-1.344-.576c-.757-.33-.925-.494-.925-.576-.672-.165-.924-.247-1.344-.659-.337 0-1.177-.411-1.43-.658 0 0-1.428-.412-1.512-.494 0-.083-3.698-1.317-4.118-1.4-.336 0-1.176-.164-1.344-.247-.169 0-.757-.164-.925-.164-.756-.165-1.513-.247-2.353-.33-.588 0-.924 0-1.345-.082-.168.082-1.344-.082-1.764.165-.505 0-1.513.247-1.85.411-.672 0-1.68.659-2.1.824-.168.082-.336.164-.588.246 1.176.412 2.437.824 2.437.906.084.082 1.512.494 1.512.494.337.247 1.177.74 1.597.659.336.411.588.494 1.26.658 0 .083.169.247.925.576l1.345.577 4.874 2.223 2.185 1.152 1.513.741.672.33.672.246.505.412 1.092.412 2.437.74 2.942 1.07 1.092.33 1.093.33.504-.083.588.165.588.576.673-.165.42.083.336.411.252.247.504.165.505.082.672-.082.756.082.252.412 1.093.164.756.083.757.082.588.247.504.494.757.165 1.932.247 1.765-.165 1.177.082.42-.33zM57.033 19.182l2.1.082v.33l2.018.164.168.412 2.017-.083.42.33-2.353.246h-.925l-1.428-.329-.84-.494.167.165-1.008-.082zM57.285 18.358s0-.329-.336-.494c-.337-.164-.252 0-.252 0l-.337-.247-.672-.082-.084-.494h-.84v-.247l-.673-.082-.336-.247.084-.247-.168-.247-.84-.412-.673-.247-.42-.494-.504-.411-.672-.659-1.681-.576-1.597-1.153-.672-.247-.672-.329-1.681-.823-2.185-1.153-4.875-2.222-1.26-.659c-.757-.33-.925-.494-.925-.576-.672-.165-.924-.247-1.344-.659-.336 0-1.177-.412-1.429-.659 0 0-1.429-.411-1.513-.493 0-.083-3.697-1.318-4.118-1.4-.336 0-1.176-.165-1.344-.247-.168 0-.756-.165-.925-.165l-2.269-.247c-.588 0-.924 0-1.344-.082-.168.082-1.345-.082-1.765.165-.42 0-1.513.247-1.849.411-.672 0-1.68.659-2.1.824l-1.01.494c-.168.082-2.184 1.07-2.268 1.152 0 .082-2.017 1.235-2.185 1.4-.085.082-.589.329-.757.411-.168.165-.672.577-.84.659-.084.164-.588.33-.673.494-.084.164-.756.411-.84.576 0 0-.336.247-.588.494-.084.165-.252.247-.336.412l-.84.411c0 .33 0 .823-.505.659l-.588.33c.084 0-.336.575-.673.905-.168.247-1.092.494-1.26.74-.252.577-.756.989-1.093 1.482 0 .083.337.083.42.165.085.165-.168.33-.168.494.253 0 .505-.247.757-.412.168-.082.336-.164.504-.164.336-.165.672-.33.924-.576 2.354-1.235 4.79-2.47 7.144-3.705 1.176-.576 2.017-1.153 3.361-1.811.336-.165 1.429-.906 2.354-.988 1.092-.082 2.437.165 2.773.33.42.246 1.26.658 1.68.74.169.082.337.247.42.247 0 .082.841.165 1.261.33.168.082.252.164.42.246.673.165 2.438.577 3.026.741.504.165.84.412 1.092.494.337.247.42.083.84.33.673.082 1.093.329 1.093.329.168.082.337.164.589.247.168 0 .504.247.588.33.168 0 1.26.328 1.345.41.168 0 .924.33 1.008.412.252.083.42.165.672.165l2.185.823 2.437.741 2.942 1.07 1.092.33 1.093.329.504-.082.588.164.589.577.672-.165.42.082.336.412.252.247.505.165.504.082.672-.082.757.082.252.411 1.092.165.757.082.756.083.588.247.504.576.757.165 1.933.247 1.764-.165 1.177.082.42-.329-.924-.412zM55.764 21.724c.336 0 .672.082.924.247.336.165.588.412.756.741.168.33.252.659.252.988 0 .33-.084.659-.252.988-.168.33-.42.576-.756.74a2.274 2.274 0 0 1-1.009.248c-.336 0-.672-.083-1.008-.247a1.632 1.632 0 0 1-.756-.741 2.156 2.156 0 0 1-.252-.988c0-.33.084-.659.252-.988.168-.33.42-.576.756-.74.504-.166.756-.248 1.093-.248zm0 .33c-.253 0-.505.082-.84.246-.253.165-.505.33-.59.577a1.37 1.37 0 0 0-.251.823c0 .247.084.576.252.823.168.247.336.412.588.576.252.165.504.247.84.247.253 0 .589-.082.841-.247.252-.164.42-.329.588-.576a1.37 1.37 0 0 0 .252-.823c0-.247-.084-.576-.252-.823-.168-.247-.336-.494-.588-.577-.252-.247-.504-.247-.84-.247zm-.84 2.634V22.63h.755c.253 0 .42 0 .505.082.084 0 .168.082.252.165.084.082.084.164.084.329s-.084.247-.168.412a.65.65 0 0 1-.42.164c.084 0 .168.083.168.083.084.082.168.247.336.411l.252.412h-.42l-.168-.33c-.168-.247-.252-.411-.336-.493-.085-.083-.169-.083-.253-.083h-.168v.906h-.42zm.335-1.153h.42c.169 0 .337 0 .42-.082.085-.082.085-.165.085-.247 0-.082 0-.082-.084-.165 0-.082-.084-.082-.168-.082h-.757v.576h.084z"/>
    </g>
</svg>
