<svg xmlns="http://www.w3.org/2000/svg" width="52" height="40" viewBox="0 0 52 40">
    <g fill="#4C5B70" fill-rule="nonzero">
        <path d="M42.898 37.085H8.738V32.217H5.844V40h37.055zM5.898 7.783h2.896V2.9H42.94v4.882h2.895V0H5.898zM3.551 23.582c.028 1.017.508 2.942 3.692 2.942 1.73 0 3.65-.426 3.65-2.35 0-1.417-1.317-1.802-3.156-2.256l-1.88-.454C3.03 20.777.312 20.117.312 16.116c0-2.022 1.043-5.597 6.711-5.597 5.353 0 6.794 3.644 6.808 5.871h-3.486c-.096-.81-.385-2.736-3.582-2.736-1.386 0-3.047.536-3.047 2.173 0 1.416 1.125 1.719 1.853 1.897l4.254 1.087c2.388.605 4.57 1.622 4.57 4.881 0 5.473-5.352 5.954-6.89 5.954C1.15 29.66.053 25.837.053 23.582h3.5zM19.018 11h8.825c4.447 0 5.586 2.792 5.586 4.662 0 2.612-1.469 3.341-2.224 3.726 2.224.839 2.8 2.613 2.8 4.4a5.262 5.262 0 0 1-1.564 3.74c-1.044 1.018-2.018 1.65-5.737 1.65h-7.686V11zm3.637 7.123h4.447c1.496 0 2.676-.577 2.676-2.021 0-1.499-1.057-1.953-2.786-1.953h-4.35v3.974h.013zm0 7.92h4.653c1.839 0 2.91-.81 2.91-2.653 0-1.595-1.36-2.2-2.732-2.2h-4.83v4.854zM45.808 11h-2.882l-5.764 18.192h3.637l3.54-11.949 3.583 11.95h3.636zM45.78 37.071L42.899 40V29.233h2.883z"/>
    </g>
</svg>
