<svg xmlns="http://www.w3.org/2000/svg" width="32" height="40" viewBox="0 0 32 40">
    <g fill="#4C5B70" fill-rule="nonzero">
        <path d="M30.89 10.386H6.38c-2.268 0-4.122-1.834-4.122-4.1 0-2.257 1.844-4.101 4.123-4.101h24.508c.611 0 1.098-.495 1.098-1.093C31.987.484 31.49 0 30.89 0H6.381C2.89-.02.05 2.803.05 6.275v27.43C.052 37.176 2.89 40 6.382 40h24.508c.611 0 1.098-.495 1.098-1.092v-27.43c0-.597-.486-1.091-1.098-1.091zm-1.109 27.42h-23.4c-2.269 0-4.123-1.835-4.123-4.102V11.056a6.324 6.324 0 0 0 4.123 1.525h23.4v25.224z"/>
        <path d="M6.733 5.275c-.611 0-1.098.495-1.098 1.093 0 .597.497 1.092 1.098 1.092H27.43c.61 0 1.098-.495 1.098-1.092 0-.598-.498-1.093-1.098-1.093H6.733zM10.607 33.014c.124.041.249.062.373.062.456 0 .88-.278 1.036-.721l1.347-3.73h5.169c.04 0 .093 0 .134-.01l1.347 3.74c.155.443.59.72 1.036.72.124 0 .248-.02.373-.061.57-.206.87-.835.662-1.401l-5.023-14.014a.702.702 0 0 0-.042-.103l-.02-.051-.021-.052c-.01-.02-.021-.03-.031-.062-.01-.01-.021-.02-.021-.03-.01-.021-.02-.031-.042-.052a9.09 9.09 0 0 0-.03-.03c-.011-.021-.021-.021-.042-.042l-.042-.041-.03-.031c-.021-.02-.032-.02-.052-.041-.01-.01-.021-.021-.031-.021-.021-.01-.032-.02-.052-.031l-.052-.02-.052-.021a.314.314 0 0 0-.103-.041h-.01l-.104-.021c-.021 0-.021-.01-.042-.01-.02-.01-.041-.01-.062-.021-.02 0-.031 0-.052-.01-.02 0-.041-.01-.062-.01h-.103c-.021 0-.042 0-.063.01-.02 0-.03 0-.051.01-.021 0-.042.01-.063.02-.02 0-.02.01-.041.01a.304.304 0 0 1-.093.021h-.01c-.032.01-.063.021-.104.042l-.052.02-.052.021c-.02.01-.03.02-.062.03-.01.011-.02.021-.031.021-.02.021-.031.021-.052.042l-.03.03-.084.083-.03.031c-.022.02-.022.03-.042.052-.01.01-.021.02-.021.03-.01.021-.02.031-.031.052l-.02.051-.022.052a.307.307 0 0 0-.04.103L9.922 31.602a1.131 1.131 0 0 0 .684 1.412zm5.418-11.788l1.864 5.194h-3.74l1.876-5.194z"/>
    </g>
</svg>
