<svg xmlns="http://www.w3.org/2000/svg" width="108" height="108" viewBox="0 0 108 108">
    <g fill="none" fill-rule="nonzero">
        <circle cx="53.805" cy="53.914" r="53.588" fill="#FFF"/>
        <path fill="#11558F" d="M76.27 36.742v-3.128l-.454-.174c-.153-.064-3.825-1.486-8.722-1.486-5.241 0-9.77 1.602-13.44 4.751-3.68-3.15-8.2-4.751-13.45-4.751-4.895 0-8.57 1.422-8.724 1.486l-.444.174v2.896c-1.488.28-2.412.778-2.412 1.588V67.92H50.59c.76.685 1.877 1.11 3.119 1.11 1.236 0 2.354-.425 3.109-1.11h21.418V38.098c-.001-.665-.749-1.095-1.966-1.356zM53.414 65.575c-1.825-.754-8.106-3.144-14.398-3.144-2.486 0-4.687.38-6.567 1.134V34.601a25.783 25.783 0 0 1 7.755-1.225c4.834 0 8.983 1.464 12.368 4.307v17.29l.842-.924v11.526zm21.432-2.002c-2.018-.81-4.326-1.217-6.888-1.217-6.29 0-12.275 2.411-14.067 3.203V54.05l.833.924V37.683c3.386-2.842 7.535-4.307 12.37-4.307 3.666 0 6.658.866 7.752 1.225v28.972z"/>
        <g fill="#11558F">
            <path d="M29.424 75.335c0-.672.54-1.007 1.62-1.005 1.138 0 1.706.297 1.706.892a.182.182 0 0 1-.053.137.183.183 0 0 1-.138.053h-.464a.437.437 0 0 1-.359-.165c-.113-.14-.32-.212-.62-.212-.413 0-.618.1-.616.299 0 .094.08.171.241.234.161.062.358.116.59.163.231.046.462.106.692.179.23.073.426.189.587.347.161.158.241.36.241.602 0 .672-.571 1.007-1.715 1.005-1.138 0-1.708-.296-1.708-.89 0-.056.017-.103.054-.139a.186.186 0 0 1 .137-.054h.463c.149 0 .268.056.357.169.114.14.32.21.62.208.476 0 .714-.1.714-.298 0-.094-.08-.172-.241-.234a3.799 3.799 0 0 0-.591-.166 7.565 7.565 0 0 1-.693-.18 1.418 1.418 0 0 1-.584-.349.81.81 0 0 1-.24-.596zM33.362 73.534c0-.056.018-.101.055-.139a.184.184 0 0 1 .135-.054h.696c.056 0 .103.018.137.054a.191.191 0 0 1 .053.139v.955c.336-.106.636-.159.9-.159.5 0 .898.153 1.193.456.295.304.443.741.443 1.314 0 1.178-.649 1.766-1.945 1.766-.3 0-.612-.033-.935-.102-.323-.067-.567-.15-.733-.247v-3.983h.001zm1.077 1.674v1.832c.178.049.396.073.656.073.292 0 .5-.08.62-.24.122-.16.183-.417.183-.773 0-.357-.06-.615-.179-.776-.12-.16-.321-.24-.605-.24a2.24 2.24 0 0 0-.675.124zM37.734 77.579a.928.928 0 0 1-.412-.81c0-.347.138-.615.412-.802.275-.187.63-.28 1.063-.28h1.03c0-.243-.05-.412-.153-.507-.102-.095-.263-.144-.483-.144-.29 0-.492.071-.609.212a.434.434 0 0 1-.357.165h-.463a.184.184 0 0 1-.192-.19c0-.595.566-.893 1.696-.893.494 0 .89.11 1.19.332.298.22.448.563.448 1.025v1.926a.185.185 0 0 1-.053.137.185.185 0 0 1-.137.053h-.6a.181.181 0 0 1-.138-.055.186.186 0 0 1-.052-.135v-.096a1.87 1.87 0 0 1-1.126.349c-.435 0-.79-.095-1.064-.287zm.665-.81c0 .115.043.209.13.281.088.074.212.11.372.11.32 0 .629-.094.926-.281v-.486h-.957a.518.518 0 0 0-.345.107.33.33 0 0 0-.126.27zM41.35 76.032v-.37a.19.19 0 0 1 .054-.139.183.183 0 0 1 .136-.053h2.346c.056 0 .102.017.138.053a.19.19 0 0 1 .055.14v.369a.181.181 0 0 1-.055.137.191.191 0 0 1-.138.053H41.54a.185.185 0 0 1-.137-.053.183.183 0 0 1-.053-.137zM44.33 76.1c0-.582.16-1.024.482-1.322.321-.298.776-.448 1.366-.448.555 0 .988.091 1.297.274.31.182.465.452.465.808a.18.18 0 0 1-.056.137.196.196 0 0 1-.14.053h-.47c-.142 0-.263-.076-.362-.227-.124-.195-.35-.292-.678-.292-.301 0-.514.08-.639.238-.125.158-.188.418-.188.778 0 .356.064.613.194.773.13.16.35.24.663.24.328 0 .554-.097.678-.292.099-.152.22-.228.363-.228h.47a.19.19 0 0 1 .14.053c.036.036.055.081.055.134a.884.884 0 0 1-.462.81c-.309.183-.74.275-1.296.275-.608 0-1.074-.15-1.398-.449-.324-.298-.485-.737-.485-1.315zM48.705 77.417c-.323-.298-.484-.739-.484-1.32 0-.583.16-1.022.484-1.32.323-.299.788-.447 1.395-.447.608 0 1.074.149 1.397.446.323.298.486.738.486 1.32 0 .582-.162 1.022-.486 1.321-.324.3-.79.449-1.397.449-.608 0-1.073-.15-1.395-.449zm.785-2.128c-.128.168-.193.436-.193.806 0 .369.065.64.193.808.129.171.333.257.61.257.277 0 .481-.086.61-.257.13-.169.195-.439.195-.808 0-.369-.065-.637-.194-.806-.13-.168-.334-.253-.611-.253-.277 0-.481.085-.61.253zM52.49 77.613v-3.028c0-.055.019-.102.055-.138a.183.183 0 0 1 .135-.054h.697c.056 0 .101.017.137.054a.191.191 0 0 1 .052.138v.196c.357-.3.72-.451 1.09-.451.437 0 .783.122 1.035.369.254.246.38.622.38 1.128v1.785a.182.182 0 0 1-.054.137.193.193 0 0 1-.139.053h-.693a.181.181 0 0 1-.137-.054.187.187 0 0 1-.054-.136v-1.785c0-.498-.198-.746-.594-.744-.259 0-.537.148-.834.445v2.084a.183.183 0 0 1-.19.19h-.695a.182.182 0 0 1-.19-.189zM56.579 75.335c0-.672.539-1.007 1.62-1.005 1.138 0 1.706.297 1.706.892a.182.182 0 0 1-.053.137.183.183 0 0 1-.137.053h-.464a.437.437 0 0 1-.359-.165c-.114-.14-.32-.212-.62-.212-.414 0-.619.1-.617.299 0 .094.081.171.242.234.16.062.358.116.59.163.231.046.463.106.693.179.23.073.426.189.587.347.16.158.24.36.24.602 0 .672-.57 1.007-1.713 1.005-1.14 0-1.709-.296-1.709-.89 0-.056.018-.103.054-.139a.188.188 0 0 1 .138-.054h.463c.15 0 .268.056.357.169.115.14.322.21.62.208.476 0 .715-.1.715-.298 0-.094-.081-.172-.242-.234a3.799 3.799 0 0 0-.59-.166 7.565 7.565 0 0 1-.693-.18 1.426 1.426 0 0 1-.586-.349.799.799 0 0 1-.242-.596zM60.515 76.368v-1.783c0-.055.019-.102.055-.138a.184.184 0 0 1 .136-.054h.697c.055 0 .1.017.136.054a.191.191 0 0 1 .053.138v1.78c0 .499.197.747.591.747.26 0 .539-.15.838-.448v-2.079c0-.055.018-.102.053-.138a.185.185 0 0 1 .136-.054h.695c.055 0 .101.017.137.054a.189.189 0 0 1 .055.138v3.028a.183.183 0 0 1-.192.19h-.695a.185.185 0 0 1-.137-.055.188.188 0 0 1-.052-.136v-.2c-.357.302-.72.454-1.09.454-.437 0-.782-.123-1.035-.369-.254-.246-.38-.622-.38-1.129zM64.796 77.613v-4.079a.186.186 0 0 1 .19-.193h.697a.183.183 0 0 1 .19.193v4.08a.183.183 0 0 1-.19.189h-.698a.186.186 0 0 1-.136-.053.185.185 0 0 1-.053-.137zM66.57 76.466v-2.932a.186.186 0 0 1 .19-.193h.698a.183.183 0 0 1 .19.192v1.037h.868c.056 0 .101.018.137.053a.186.186 0 0 1 .052.137v.373a.184.184 0 0 1-.19.19h-.867v1.155c0 .214.05.38.149.496.1.117.231.175.398.175.056 0 .13-.006.223-.018.094-.013.161-.018.203-.018h.115c.056 0 .103.017.14.052a.173.173 0 0 1 .053.132v.324a.16.16 0 0 1-.054.12.248.248 0 0 1-.14.064 4.57 4.57 0 0 1-.827.06c-.89.003-1.337-.465-1.337-1.4zM69.245 77.414v-.196c0-.137.036-.241.105-.315.07-.072.169-.108.298-.108h.367c.131 0 .231.036.3.108.069.074.103.178.103.315v.196a.44.44 0 0 1-.103.308c-.069.075-.169.112-.3.112h-.367c-.131 0-.23-.037-.3-.112a.44.44 0 0 1-.103-.308zM71.043 77.613v-3.028a.186.186 0 0 1 .19-.192h.697c.056 0 .101.017.137.053a.187.187 0 0 1 .052.137v.193c.212-.152.416-.263.611-.337.196-.072.454-.109.771-.109a.19.19 0 0 1 .138.054c.037.035.055.08.055.133v.466c0 .055-.018.1-.055.135a.192.192 0 0 1-.138.052h-.1c-.048 0-.125-.004-.232-.01a5.126 5.126 0 0 0-.247-.01c-.28 0-.547.155-.803.464v1.998a.186.186 0 0 1-.054.137.19.19 0 0 1-.135.053h-.698a.186.186 0 0 1-.137-.053.182.182 0 0 1-.052-.136zM74.075 76.368v-1.783a.186.186 0 0 1 .19-.192h.697a.18.18 0 0 1 .137.054.191.191 0 0 1 .053.138v1.78c0 .499.197.747.59.747.26 0 .539-.15.838-.448v-2.079c0-.055.018-.102.054-.138a.185.185 0 0 1 .136-.054h.694a.19.19 0 0 1 .139.054.188.188 0 0 1 .053.138v3.028a.182.182 0 0 1-.053.137.192.192 0 0 1-.139.053h-.694a.183.183 0 0 1-.19-.19v-.2c-.357.3-.72.453-1.089.453-.437 0-.782-.123-1.035-.369-.254-.246-.381-.622-.381-1.129z"/>
        </g>
        <path fill="#11558F" d="M53.749 104.858c-28.165 0-51.078-22.912-51.078-51.076 0-28.165 22.913-51.078 51.078-51.078 28.164 0 51.077 22.913 51.077 51.078 0 28.164-22.913 51.076-51.077 51.076zm0-99.836c-26.887 0-48.76 21.873-48.76 48.76 0 26.886 21.873 48.76 48.76 48.76 26.886 0 48.76-21.873 48.76-48.76 0-26.888-21.873-48.76-48.76-48.76z"/>
        <g fill="#11558F">
            <path d="M20.675 75.647l-4.027.981c-1.095.269-2.02-.29-2.775-1.674l-1.082-1.995a.33.33 0 0 1-.02-.283.407.407 0 0 1 .191-.223l4.622-2.506a.365.365 0 0 1 .299-.027c.103.033.18.098.232.194l.378.696a.383.383 0 0 1 .037.303.386.386 0 0 1-.197.233l-.933.505 1.423 2.622 1.07-.257a.494.494 0 0 1 .338.033.516.516 0 0 1 .248.222l.397.734c.053.097.059.189.02.274a.27.27 0 0 1-.125.133.471.471 0 0 1-.096.035zm-3.052-.885l-1.27-2.341-1.931 1.048.57 1.05a1.12 1.12 0 0 0 1.273.569l1.358-.326zM17.235 69.156l-4.955 1.681a.4.4 0 0 1-.31-.019.379.379 0 0 1-.205-.227l-.255-.75a.371.371 0 0 1 .025-.304.398.398 0 0 1 .234-.201l1.907-.647-.291-.857a1.083 1.083 0 0 0-.4-.551c-.187-.133-.45-.232-.788-.295l-1.308-.245c-.303-.054-.496-.202-.581-.443l-.313-.92c-.035-.105-.019-.179.05-.223a.226.226 0 0 1 .053-.026.51.51 0 0 1 .241-.007l1.86.333c.27.048.506.124.707.229.202.105.376.272.521.501-.022-.188.028-.406.148-.653.12-.246.265-.476.433-.692l1.25-1.535a.43.43 0 0 1 .176-.135.181.181 0 0 1 .072-.01c.08.002.138.055.174.158l.31.912a.694.694 0 0 1 .004.372.906.906 0 0 1-.17.369l-.875 1.079c-.214.26-.362.498-.44.714-.08.216-.079.444.003.684l.29.857 1.938-.658a.37.37 0 0 1 .298.021c.095.049.161.125.196.229l.255.749a.385.385 0 0 1-.024.306.387.387 0 0 1-.23.204z"/>
            <path d="M15.296 63.472l-4.123-.415c-1.123-.112-1.81-.945-2.06-2.503l-.357-2.24a.33.33 0 0 1 .076-.275.401.401 0 0 1 .254-.144l5.192-.826a.394.394 0 0 1 .445.335l.125.78a.38.38 0 0 1-.329.453l-1.048.165.468 2.946 1.094.113c.118.01.221.058.31.144a.517.517 0 0 1 .158.292l.131.823c.017.11-.007.197-.073.264a.263.263 0 0 1-.161.086.454.454 0 0 1-.102.002zm-2.583-1.85l-.417-2.63-2.17.345.188 1.18c.042.266.155.485.337.659.183.173.408.274.674.302l1.388.144zM14.19 56.817l-.405-.008a.371.371 0 0 1-.275-.12.382.382 0 0 1-.109-.28l.006-.327-3.173-.84c-1.098-.289-1.634-1.211-1.61-2.767l.042-2.275a.382.382 0 0 1 .118-.278.377.377 0 0 1 .28-.111l5.257.094c.11.002.2.042.274.12a.384.384 0 0 1 .106.282l-.109 6.12a.382.382 0 0 1-.12.278.386.386 0 0 1-.283.112zm-.754-2.369l.052-2.97-3.653-.066-.023 1.252a.985.985 0 0 0 .208.658c.144.178.346.3.606.37l2.81.756zM14.435 49.05l-5.153-.963a.37.37 0 0 1-.251-.167.392.392 0 0 1-.06-.298l.89-4.772a.376.376 0 0 1 .168-.253.384.384 0 0 1 .299-.061l.39.071c.107.02.192.075.253.165.062.09.083.189.063.296l-.673 3.604 1.2.225.58-3.104a.383.383 0 0 1 .165-.254.383.383 0 0 1 .298-.062l.39.073a.38.38 0 0 1 .255.165c.062.09.083.19.062.297l-.58 3.104 1.22.228.673-3.597a.372.372 0 0 1 .162-.25c.088-.059.186-.08.294-.059l.397.074c.108.02.192.076.254.168.062.091.082.191.062.298l-.887 4.75a.387.387 0 0 1-.166.257.385.385 0 0 1-.305.064zM15.51 43.085l-4.87-1.89a.398.398 0 0 1-.237-.517l.625-1.61a.498.498 0 0 1 .223-.25.568.568 0 0 1 .335-.084l3.804.134-2.898-2.47a.574.574 0 0 1-.19-.288.502.502 0 0 1 .003-.336l.626-1.612a.372.372 0 0 1 .211-.217.406.406 0 0 1 .311 0l4.87 1.89a.39.39 0 0 1 .227.216.395.395 0 0 1 .004.309l-.281.724a.394.394 0 0 1-.211.225.383.383 0 0 1-.312.006l-3.834-1.488 3.32 2.882a.6.6 0 0 1 .175.289.507.507 0 0 1-.009.33l-.218.561a.497.497 0 0 1-.216.248.631.631 0 0 1-.324.098l-4.394-.118 3.835 1.489a.388.388 0 0 1 .225.215.396.396 0 0 1 .005.308l-.28.721a.403.403 0 0 1-.524.235zM18.754 35.194l-4.421-2.815a.381.381 0 0 1-.178-.253.407.407 0 0 1 .063-.31l.41-.645a.403.403 0 0 1 .252-.183.367.367 0 0 1 .299.048l3.555 2.263L16.485 29a.896.896 0 0 1-.094-.378.557.557 0 0 1 .07-.328l.673-1.058a.376.376 0 0 1 .25-.173.393.393 0 0 1 .3.054l4.421 2.815a.37.37 0 0 1 .171.253.411.411 0 0 1-.059.308l-.41.646a.404.404 0 0 1-.554.132l-3.296-2.097 2.105 3.97a.857.857 0 0 1 .087.383c0 .142-.028.26-.087.353l-.756 1.187a.394.394 0 0 1-.251.178.385.385 0 0 1-.3-.051zM22.571 29.763a.24.24 0 0 1-.087-.051.334.334 0 0 1-.093-.158l-.652-2.166c-.79.36-1.487.263-2.094-.29-.46-.418-.67-.901-.63-1.45.04-.55.278-1.067.718-1.552l2.214-2.44a.357.357 0 0 1 .264-.122.38.38 0 0 1 .28.104l3.896 3.532a.388.388 0 0 1 .02.553l-.534.59a.38.38 0 0 1-.275.128.388.388 0 0 1-.288-.105l-1.312-1.19-1.011 1.115.638 1.944c.098.283.058.521-.119.718l-.713.786a.188.188 0 0 1-.222.054zm-1.874-3.854c.365.332.705.326 1.018-.019l1.4-1.544-1.097-.996-1.4 1.544c-.313.345-.287.683.08 1.015zM25.76 18.728a.434.434 0 0 1-.115-.105.226.226 0 0 1-.044-.128c-.007-.09.034-.166.124-.228l.732-.503c.222-.153.447-.153.678-.002l1.063.69c.31.199.602.306.875.321.272.015.554-.077.845-.278l.428-.293-.603-2.221a.55.55 0 0 1 .007-.353.534.534 0 0 1 .205-.268l.7-.482c.09-.061.18-.076.266-.044a.25.25 0 0 1 .124.099.39.39 0 0 1 .05.109l1.094 4.014c.156.564.16 1.077.013 1.541-.147.465-.505.893-1.074 1.283l-.836.575a.4.4 0 0 1-.294.07.346.346 0 0 1-.246-.15l-.253-.369a.35.35 0 0 1-.055-.28.397.397 0 0 1 .174-.252l.11-.077.287-.197.297-.204.072-.05c.461-.317.57-.832.326-1.548l-.299.205c-.582.4-1.118.595-1.607.582-.489-.013-1.035-.207-1.636-.58l-1.407-.877zM34.66 18.742c-.681-.231-1.243-.817-1.683-1.758-.44-.94-.528-1.748-.263-2.421.265-.674.872-1.233 1.823-1.677l.857-.4c.582-.273 1.166-.363 1.753-.272.587.09 1.003.396 1.247.917.07.15.074.28.013.388a.516.516 0 0 1-.223.223l-.468.219c-.242.113-.495.06-.76-.156-.375-.313-.782-.368-1.219-.164l-.678.317c-.557.26-.88.556-.966.887-.086.332.021.82.323 1.465.301.645.607 1.042.918 1.188.31.148.744.091 1.301-.17l.76-.354c.436-.204.654-.55.652-1.039 0-.341.117-.566.353-.676l.454-.212a.48.48 0 0 1 .16-.04.437.437 0 0 1 .223.057.45.45 0 0 1 .204.22c.244.523.215 1.037-.088 1.543-.302.507-.742.894-1.32 1.164l-.934.436c-.943.44-1.756.546-2.438.315zM40.477 16.436l-1.357-5.063a.39.39 0 0 1 .037-.302.373.373 0 0 1 .237-.186l5.278-1.415a.379.379 0 0 1 .301.041.393.393 0 0 1 .185.243l1.357 5.062a.376.376 0 0 1-.044.302.395.395 0 0 1-.244.185l-.756.203a.386.386 0 0 1-.302-.039.374.374 0 0 1-.187-.24L43.83 10.93l-2.972.798 1.152 4.297a.38.38 0 0 1-.04.3.381.381 0 0 1-.24.185l-.764.205a.39.39 0 0 1-.303-.038.376.376 0 0 1-.186-.24zM47.364 14.7l-.497-5.218a.373.373 0 0 1 .09-.288.389.389 0 0 1 .271-.14l4.831-.46c.11-.01.206.02.29.091a.39.39 0 0 1 .142.27l.037.394a.382.382 0 0 1-.088.29.378.378 0 0 1-.268.142l-3.65.348.116 1.215 3.143-.3a.384.384 0 0 1 .29.09c.085.07.132.16.142.269l.038.395a.384.384 0 0 1-.089.29.375.375 0 0 1-.268.142l-3.142.3.118 1.236 3.641-.346a.37.37 0 0 1 .285.087.381.381 0 0 1 .138.266l.038.402a.377.377 0 0 1-.09.29.384.384 0 0 1-.271.142l-4.81.459a.4.4 0 0 1-.436-.366zM53.411 14.06l.507-5.217a.387.387 0 0 1 .145-.27c.085-.07.183-.1.292-.09l.787.077c.11.01.199.057.268.14.069.083.099.18.088.288l-.431 4.433 1.836.178.43-4.433a.373.373 0 0 1 .144-.265.39.39 0 0 1 .292-.085l.788.076c.108.011.197.059.267.145.07.085.098.183.087.291l-.43 4.425 1.84.179.43-4.433a.373.373 0 0 1 .143-.265.385.385 0 0 1 .29-.086l.79.077c.11.01.199.058.269.144a.39.39 0 0 1 .087.292l-.506 5.216a.383.383 0 0 1-.144.268.38.38 0 0 1-.289.088l-7.622-.74a.39.39 0 0 1-.27-.143.386.386 0 0 1-.088-.29zM62.596 15.156l1.557-5.004a.388.388 0 0 1 .196-.235.397.397 0 0 1 .313-.026l.747.232a.38.38 0 0 1 .233.196c.05.098.058.199.025.303l-.562 1.809 2.765.86.563-1.81a.383.383 0 0 1 .196-.234.388.388 0 0 1 .305-.029l.747.232c.11.035.19.101.24.2a.386.386 0 0 1 .027.303l-1.558 5.004a.376.376 0 0 1-.197.231.396.396 0 0 1-.306.027l-.747-.233a.393.393 0 0 1-.267-.488l.643-2.066-2.765-.86-.643 2.066a.366.366 0 0 1-.192.23.383.383 0 0 1-.3.023l-.748-.233a.395.395 0 0 1-.238-.195.365.365 0 0 1-.034-.303zM69.752 17.321c-.28-.71-.169-1.55.334-2.522.503-.97 1.126-1.546 1.868-1.728.742-.182 1.605-.017 2.59.494.987.511 1.618 1.12 1.897 1.831.28.71.166 1.55-.336 2.521-.502.97-1.124 1.547-1.864 1.73-.742.181-1.605.017-2.59-.493-.986-.511-1.62-1.121-1.899-1.833zm2.815-2.93c-.408.168-.766.548-1.073 1.141-.306.593-.41 1.103-.312 1.533.098.43.429.789.99 1.08.562.292 1.047.354 1.453.185.405-.168.762-.547 1.07-1.14.306-.593.411-1.104.315-1.533-.097-.43-.427-.79-.988-1.082-.562-.292-1.047-.353-1.455-.184zM75.29 20.607l3.099-4.237a.389.389 0 0 1 .559-.087l3.282 2.402a.383.383 0 0 1 .082.555l-.233.32a.382.382 0 0 1-.553.085l-2.323-1.7-2.632 3.598a.372.372 0 0 1-.257.154.388.388 0 0 1-.292-.075l-.638-.467a.392.392 0 0 1-.16-.257.36.36 0 0 1 .066-.291zM80.032 23.884c-.052-.761.308-1.529 1.08-2.302.773-.773 1.54-1.135 2.302-1.083.762.05 1.536.468 2.32 1.253.786.785 1.204 1.557 1.255 2.318.052.76-.31 1.528-1.082 2.302-.772.773-1.538 1.135-2.3 1.085-.761-.05-1.534-.467-2.32-1.252-.784-.785-1.202-1.558-1.255-2.32zM83.6 21.94c-.44.038-.896.292-1.367.765-.47.472-.724.927-.76 1.367-.036.438.17.882.619 1.329.447.446.89.653 1.328.615.437-.038.892-.292 1.362-.765.472-.472.727-.927.765-1.367.037-.438-.168-.88-.616-1.328-.447-.448-.89-.653-1.33-.616zM86.031 30.857l4.483-2.732a.387.387 0 0 1 .55.133l2.467 4.047a.38.38 0 0 1 .046.3.39.39 0 0 1-.18.246l-.338.206a.391.391 0 0 1-.54-.124l-1.854-3.04-.866.528 1.083 1.775c.357.584.507 1.141.451 1.669-.055.53-.354.958-.894 1.288-.54.33-1.059.397-1.553.203-.496-.195-.92-.583-1.276-1.165L85.9 31.383a.361.361 0 0 1-.046-.29.384.384 0 0 1 .178-.236zm1.513.937l1.083 1.775c.245.402.574.478.987.227.411-.252.495-.578.25-.98L88.78 31.04l-1.237.754zM89.357 36.39l4.873-1.93a.384.384 0 0 1 .31.003c.099.045.17.122.215.233l.282.712a.399.399 0 0 1 0 .31.37.37 0 0 1-.215.214l-3.917 1.552 4.801.701c.125.02.246.068.361.145a.56.56 0 0 1 .225.25l.463 1.166a.38.38 0 0 1-.007.304.388.388 0 0 1-.22.21l-4.873 1.93a.375.375 0 0 1-.305-.009.412.412 0 0 1-.215-.228l-.282-.712a.399.399 0 0 1 .001-.31.381.381 0 0 1 .216-.215l3.633-1.44-4.45-.624a.86.86 0 0 1-.362-.154.642.642 0 0 1-.234-.277l-.517-1.308a.394.394 0 0 1 .001-.308.377.377 0 0 1 .216-.216zM92.99 42.3c.161-.033.288-.01.379.071a.48.48 0 0 1 .165.258l.101.486c.053.253-.057.482-.33.688a.787.787 0 0 0-.277.42c-.052.18-.059.37-.017.567l.27 1.29c.062.299.157.513.285.641.126.128.305.168.534.12.23-.048.379-.156.443-.324.064-.17.065-.403.003-.702l-.223-1.063a.383.383 0 0 1 .055-.298.388.388 0 0 1 .25-.172l.339-.07a.394.394 0 0 1 .292.052c.093.056.151.136.172.238l.194.927c.07.332.17.566.301.7.131.135.31.178.533.132.223-.047.368-.158.435-.335.066-.175.064-.43-.005-.762l-.21-1.001c-.092-.445-.327-.717-.7-.817-.285-.07-.453-.228-.504-.475l-.103-.49a.517.517 0 0 1-.005-.165.42.42 0 0 1 .108-.203.463.463 0 0 1 .267-.149c.465-.098.9.058 1.299.468.4.41.658.89.773 1.443l.265 1.264c.335 1.599-.098 2.525-1.302 2.776-.5.105-.934-.002-1.302-.32-.178.49-.528.79-1.052.9-.634.132-1.135.03-1.5-.308-.365-.338-.625-.877-.78-1.619l-.33-1.579a2.825 2.825 0 0 1 .136-1.637c.21-.533.557-.85 1.041-.951zM93.103 49.191l5.237-.203a.387.387 0 0 1 .287.107c.082.075.125.17.129.285l.03.782a.377.377 0 0 1-.107.285.385.385 0 0 1-.278.127l-1.893.073.113 2.894 1.893-.074a.386.386 0 0 1 .287.108.38.38 0 0 1 .129.277l.03.782a.386.386 0 0 1-.107.293.389.389 0 0 1-.277.126l-5.238.203a.379.379 0 0 1-.285-.11.4.4 0 0 1-.126-.279l-.03-.782a.396.396 0 0 1 .1-.287.367.367 0 0 1 .271-.129l2.162-.081-.112-2.895-2.163.084a.37.37 0 0 1-.28-.104.38.38 0 0 1-.121-.276l-.03-.782a.4.4 0 0 1 .103-.29.373.373 0 0 1 .276-.134zM93.277 56.117l5.202.646a.397.397 0 0 1 .339.445l-.6 4.818a.378.378 0 0 1-.152.263.393.393 0 0 1-.293.08l-.394-.05a.384.384 0 0 1-.263-.149.383.383 0 0 1-.08-.292l.452-3.639-1.211-.15-.391 3.133a.376.376 0 0 1-.15.263.387.387 0 0 1-.292.08l-.395-.049a.382.382 0 0 1-.264-.15.384.384 0 0 1-.081-.292l.39-3.132-1.233-.154-.45 3.63a.387.387 0 0 1-.437.336l-.402-.05a.376.376 0 0 1-.263-.152.392.392 0 0 1-.08-.295l.597-4.794a.389.389 0 0 1 .15-.266.39.39 0 0 1 .3-.08zM92.656 62.653c.625-.36 1.435-.392 2.431-.099.997.293 1.66.762 1.99 1.406.33.644.346 1.469.05 2.476l-.267.908c-.181.616-.5 1.114-.957 1.494-.457.38-.96.489-1.513.327-.158-.048-.258-.13-.298-.247a.514.514 0 0 1-.02-.315l.147-.496c.075-.257.282-.412.619-.465.485-.074.795-.343.93-.806l.213-.72c.174-.59.164-1.027-.027-1.31-.191-.285-.628-.528-1.311-.729-.683-.2-1.183-.233-1.498-.099-.316.136-.561.498-.735 1.087l-.237.805c-.135.463-.02.855.348 1.177.257.224.347.462.273.713l-.14.48a.513.513 0 0 1-.077.147.443.443 0 0 1-.19.128.449.449 0 0 1-.3.006c-.553-.162-.919-.525-1.098-1.087-.18-.561-.18-1.148.001-1.76l.29-.984c.29-1 .75-1.679 1.376-2.037zM90.733 68.096l3.127 2.72c.853.74.931 1.818.236 3.234l-1.004 2.035a.332.332 0 0 1-.221.18.4.4 0 0 1-.291-.029l-4.716-2.325a.363.363 0 0 1-.195-.228.4.4 0 0 1 .025-.302l.35-.709a.384.384 0 0 1 .226-.206.388.388 0 0 1 .304.026l.95.469 1.32-2.674-.827-.726a.487.487 0 0 1-.17-.295.517.517 0 0 1 .04-.33l.368-.748c.05-.098.12-.155.213-.173a.271.271 0 0 1 .181.023.538.538 0 0 1 .084.058zm1.039 3.002l-1.178 2.389 1.971.972.53-1.073a1.12 1.12 0 0 0-.272-1.368l-1.051-.92z"/>
        </g>
        <g fill="#11558F">
            <path d="M19.561 82.273c-.01-.565.285-1.116.885-1.659.6-.542 1.179-.779 1.74-.712.56.067 1.116.403 1.666 1.013.55.609.83 1.195.839 1.76.009.563-.287 1.116-.886 1.657-.599.542-1.18.78-1.738.714-.561-.066-1.116-.403-1.666-1.013-.551-.608-.83-1.195-.84-1.76zm2.708-1.3c-.327.012-.672.183-1.038.513s-.57.657-.614.979c-.043.323.093.658.406 1.005.313.347.632.515.957.504.325-.011.67-.182 1.036-.512.365-.33.57-.657.615-.98.045-.322-.09-.657-.404-1.005-.313-.346-.632-.513-.958-.503zM23.683 84.9c.389-.434.802-.655 1.241-.663.439-.009.877.184 1.317.577.414.37.675.727.784 1.07a.88.88 0 0 1-.194.91.18.18 0 0 1-.133.066.188.188 0 0 1-.14-.054l-.35-.314c-.106-.094-.146-.231-.119-.41.038-.229-.066-.452-.31-.67-.223-.2-.435-.284-.635-.25-.198.035-.418.187-.659.455-.238.266-.36.5-.371.706-.01.205.101.412.335.621.244.219.478.297.7.235.175-.048.316-.023.422.072l.35.313a.194.194 0 0 1 .068.134.18.18 0 0 1-.048.137.89.89 0 0 1-.885.295c-.351-.07-.735-.29-1.148-.66-.453-.406-.701-.828-.742-1.266-.042-.439.13-.873.517-1.304zM25.865 88.839l1.8-2.434a.182.182 0 0 1 .126-.078.18.18 0 0 1 .141.036l.561.415c.045.033.07.075.078.124a.192.192 0 0 1-.04.143l-.662.896 1.096.81.662-.896a.186.186 0 0 1 .27-.04l.558.413a.18.18 0 0 1 .078.124.19.19 0 0 1-.04.143l-1.8 2.434a.186.186 0 0 1-.124.079.184.184 0 0 1-.142-.039l-.558-.413a.188.188 0 0 1-.08-.125.18.18 0 0 1 .037-.141l.69-.934-1.096-.81-.69.933a.184.184 0 0 1-.265.04l-.56-.415a.184.184 0 0 1-.079-.123.182.182 0 0 1 .039-.142zM29.784 91.405c-.123-.423-.035-.883.265-1.382.299-.498.664-.793 1.094-.882.43-.089.905.022 1.426.336.521.312.843.68.968 1.102.124.422.037.881-.262 1.38-.3.499-.666.794-1.097.883-.43.09-.907-.022-1.428-.335-.52-.313-.843-.68-.966-1.102zm1.77-1.42c-.198.077-.39.274-.581.59-.19.317-.274.582-.25.794.022.213.153.39.39.532.24.143.457.174.656.096.199-.08.394-.277.584-.594.19-.316.273-.58.247-.791-.025-.211-.155-.388-.394-.53-.238-.144-.456-.176-.653-.097zM33.083 93.566l1.31-2.73a.184.184 0 0 1 .108-.101.184.184 0 0 1 .146.009l1.678.805c.355.171.611.378.768.623.156.245.168.506.034.783a.757.757 0 0 1-.641.453c.244.322.285.653.124.992-.15.314-.362.486-.637.517-.274.032-.61-.047-1.004-.236l-1.797-.861a.183.183 0 0 1-.1-.107.185.185 0 0 1 .011-.147zm1.194 0l.932.447c.103.05.195.058.278.028a.34.34 0 0 0 .19-.187.344.344 0 0 0 .026-.266c-.028-.083-.093-.149-.196-.199l-.931-.446-.299.623zm.605-1.26l.821.394c.085.04.165.049.243.023a.286.286 0 0 0 .173-.156.286.286 0 0 0 .014-.234.322.322 0 0 0-.17-.174l-.822-.394-.26.54zM37.1 95.389c-.191-.275-.227-.575-.106-.902.12-.327.342-.532.664-.611.323-.08.687-.046 1.094.104l.966.356c.085-.228.095-.404.033-.53-.063-.125-.198-.224-.405-.301-.271-.099-.486-.102-.643-.012a.435.435 0 0 1-.393.033l-.434-.16a.185.185 0 0 1-.115-.244c.206-.56.84-.643 1.9-.254.464.17.798.412 1.001.722.205.31.227.683.067 1.117l-.665 1.807a.19.19 0 0 1-.097.11.188.188 0 0 1-.147.003l-.564-.208a.182.182 0 0 1-.112-.243l.034-.09A1.88 1.88 0 0 1 38 96.023c-.407-.15-.706-.36-.9-.635zm.904-.531c-.04.108-.03.21.027.308.057.098.16.175.31.23.302.111.623.13.966.057l.168-.455-.898-.331a.52.52 0 0 0-.36-.02.336.336 0 0 0-.213.21zM40.895 96.779l.766-2.93a.192.192 0 0 1 .087-.12.188.188 0 0 1 .145-.018l.675.176a.195.195 0 0 1 .12.088c.024.044.03.093.016.147l-.282 1.079 1.319.344.282-1.078a.189.189 0 0 1 .087-.12.189.189 0 0 1 .148-.018l.67.176a.185.185 0 0 1 .12.087c.024.044.03.093.016.148l-.766 2.93a.189.189 0 0 1-.086.119.188.188 0 0 1-.146.016l-.67-.175a.194.194 0 0 1-.121-.087.185.185 0 0 1-.018-.145l.293-1.123-1.318-.345-.293 1.122a.188.188 0 0 1-.088.12.198.198 0 0 1-.144.017l-.674-.177a.183.183 0 0 1-.138-.233zM45.375 97.846a.928.928 0 0 1-.279-.864c.055-.344.233-.587.534-.728.301-.14.666-.177 1.094-.108l1.017.163c.038-.24.015-.415-.07-.525-.086-.11-.238-.183-.454-.219-.286-.045-.498-.008-.634.114a.439.439 0 0 1-.379.105l-.457-.073a.185.185 0 0 1-.16-.218c.095-.587.7-.793 1.816-.614.488.08.861.252 1.122.516.26.267.354.628.28 1.084L48.5 98.38a.183.183 0 0 1-.073.126.182.182 0 0 1-.143.03l-.593-.095a.186.186 0 0 1-.127-.075.19.19 0 0 1-.03-.142l.015-.095c-.361.18-.75.234-1.167.165-.43-.067-.765-.217-1.006-.45zm.784-.694a.347.347 0 0 0 .085.297c.075.086.191.141.35.166.315.052.635.008.958-.129l.077-.48-.945-.151a.521.521 0 0 0-.357.05.339.339 0 0 0-.168.247zM51.57 98.649l.05-3.027a.19.19 0 0 1 .058-.138.189.189 0 0 1 .136-.052l1.86.03c.394.008.713.09.958.247.244.157.363.39.359.698a.759.759 0 0 1-.395.68c.356.189.532.472.527.848-.006.347-.127.593-.364.737-.236.143-.574.21-1.011.203l-1.993-.034a.186.186 0 0 1-.136-.054.19.19 0 0 1-.05-.138zm1.085-.498l1.033.017c.114.002.202-.027.264-.09a.341.341 0 0 0 .097-.249.347.347 0 0 0-.088-.252c-.06-.065-.146-.097-.26-.1l-1.033-.016-.013.69zm.023-1.398l.911.017c.094 0 .17-.025.23-.081a.28.28 0 0 0 .093-.214.288.288 0 0 0-.085-.219.32.32 0 0 0-.227-.087l-.912-.016-.01.6zM57.786 98.471l-.059-.45c-.034-.261-.009-.495.075-.7.084-.206.202-.374.357-.504.155-.131.33-.25.525-.354.197-.105.394-.197.592-.278l.544-.22c.165-.068.294-.148.392-.242a.361.361 0 0 0 .122-.314c-.03-.232-.11-.383-.24-.451s-.337-.085-.621-.047l-.22.028c-.397.052-.641.211-.734.48-.069.206-.195.32-.38.345l-.367.047a.355.355 0 0 1-.12-.006.31.31 0 0 1-.147-.091.338.338 0 0 1-.095-.204.897.897 0 0 1 .189-.67c.155-.211.36-.38.615-.51.257-.128.53-.213.82-.25l.415-.053c.274-.036.52-.044.74-.025.22.018.423.07.61.154.189.084.344.218.465.403.12.185.198.418.234.701.03.24.004.457-.08.652a1.275 1.275 0 0 1-.358.487c-.156.128-.331.246-.529.35a6.415 6.415 0 0 1-.591.275c-.198.08-.378.154-.543.219a1.436 1.436 0 0 0-.395.227c-.1.085-.143.174-.13.268l2.563-.33a.29.29 0 0 1 .223.06c.064.05.102.115.111.195l.038.29a.296.296 0 0 1-.259.328l-3.424.443a.296.296 0 0 1-.221-.058.272.272 0 0 1-.117-.195zM62.322 96.987c-.182-.264-.323-.6-.422-1.004-.098-.404-.126-.766-.085-1.082.042-.318.145-.582.31-.796.164-.213.363-.387.598-.523.234-.136.506-.241.82-.318l.212-.05c.314-.078.605-.11.874-.096.27.014.527.078.771.192.245.112.458.3.64.564.182.262.322.597.42 1.002.099.405.127.767.086 1.085a1.607 1.607 0 0 1-.309.796 2.039 2.039 0 0 1-.598.522 3.023 3.023 0 0 1-.82.318l-.212.052a3.036 3.036 0 0 1-.875.094 2.067 2.067 0 0 1-.77-.19 1.613 1.613 0 0 1-.64-.566zm1.534-2.893c-.76.185-1.032.723-.815 1.614.216.891.704 1.245 1.464 1.06.76-.185 1.031-.723.815-1.613-.216-.892-.704-1.244-1.464-1.06zM67.282 95.737c-.212-.242-.391-.558-.536-.948-.145-.39-.215-.746-.211-1.066.004-.32.075-.596.215-.826.14-.23.316-.428.532-.59.216-.16.475-.298.777-.41l.204-.076c.303-.113.59-.178.859-.196.268-.017.53.016.786.1s.49.246.702.486c.212.24.39.555.535.945.145.39.216.746.212 1.068a1.61 1.61 0 0 1-.215.828 2.06 2.06 0 0 1-.532.587 3.084 3.084 0 0 1-.778.412l-.203.076a3.04 3.04 0 0 1-.86.195 2.083 2.083 0 0 1-.786-.098 1.605 1.605 0 0 1-.701-.487zm1.187-3.052c-.735.272-.942.838-.623 1.697.32.86.845 1.153 1.578.88.734-.27.94-.837.622-1.697-.32-.858-.845-1.152-1.577-.88zM71.803 93.65l-.623-1.23c-.266-.53-.32-.967-.16-1.317.16-.348.503-.657 1.033-.924l.706-.357c.416-.21.81-.295 1.184-.252.372.043.629.202.768.478.055.109.063.204.022.285a.35.35 0 0 1-.152.168l-.328.165c-.144.074-.315.05-.509-.07-.167-.105-.395-.085-.682.059l-.514.26c-.227.115-.369.243-.425.385-.056.142-.021.338.105.589l.052.102 1.172-.592c.528-.267.976-.373 1.345-.32.369.055.667.305.892.75.225.448.25.836.074 1.166-.175.33-.526.629-1.052.894l-.607.308c-.535.27-.989.371-1.362.303-.374-.067-.687-.35-.94-.85zm1.046-.53c.114.227.244.354.385.382.143.028.33-.018.566-.137l.417-.21c.227-.116.378-.232.449-.352.072-.12.064-.268-.023-.442-.088-.175-.202-.268-.34-.28-.14-.013-.323.039-.55.155l-1.076.543.172.34zM78.674 91.345l-1.728-2.487a.187.187 0 0 1-.034-.145c.01-.05.036-.091.08-.122l1.911-1.328a.185.185 0 0 1 .144-.034c.05.011.09.038.122.084l.211.305a.186.186 0 0 1 .035.144.19.19 0 0 1-.083.12l-1.182.822 1.407 2.027a.185.185 0 0 1 .034.143.185.185 0 0 1-.082.12l-.572.399a.186.186 0 0 1-.142.034.186.186 0 0 1-.12-.082zM81.414 89.155c-.439-.024-.843-.261-1.214-.71-.37-.449-.526-.89-.465-1.326.058-.434.324-.845.792-1.232.469-.387.923-.568 1.362-.544.438.023.843.26 1.213.708.371.45.526.892.466 1.328-.058.437-.324.848-.792 1.235-.47.387-.924.567-1.362.541zm-.748-2.142c.008.211.129.461.364.745.234.285.456.452.664.5.208.05.418-.014.633-.19.215-.177.318-.372.31-.586-.01-.214-.13-.464-.366-.747-.234-.286-.455-.451-.663-.498-.207-.049-.418.017-.632.194-.214.176-.317.371-.31.582zM84.35 86.983l-.262-.26a.19.19 0 0 1 0-.274l.171-.172-.911-1.512c-.335-.556-.19-1.147.432-1.772l.997-1a.186.186 0 0 1 .273 0l2.145 2.137c.04.04.058.084.058.134a.19.19 0 0 1-.06.136l-2.571 2.581a.195.195 0 0 1-.135.061.187.187 0 0 1-.137-.06zm.626-1.426l1.06-1.063-1.35-1.344-.397.398c-.212.213-.239.456-.08.73l.767 1.28zM85.252 81.763a.127.127 0 0 1-.042-.023.12.12 0 0 1-.043-.075.161.161 0 0 1 .033-.134l.413-.503a.284.284 0 0 1 .156-.096.266.266 0 0 1 .185.014l1.279.521c.315.127.555.19.717.19a.475.475 0 0 0 .382-.17l-1.295-1.859a.29.29 0 0 1-.054-.171c0-.064.019-.119.057-.166l.419-.509a.143.143 0 0 1 .122-.056.147.147 0 0 1 .087.032.11.11 0 0 1 .027.03l1.728 2.475c.305.439.475.81.508 1.116.034.306-.064.599-.293.877-.2.244-.387.44-.561.586a.228.228 0 0 1-.139.063.177.177 0 0 1-.13-.038l-.265-.218a.19.19 0 0 1-.074-.129.18.18 0 0 1 .046-.14l.072-.09c.03-.036.078-.084.143-.142.063-.059.112-.11.145-.149.186-.226.154-.517-.097-.873a1.279 1.279 0 0 1-.807.482c-.315.048-.737-.034-1.263-.247l-1.456-.598z"/>
        </g>
    </g>
</svg>
