<?xml version="1.0" encoding="UTF-8"?>
<svg width="232px" height="108px" viewBox="0 0 232 108" version="1.1" xmlns="http://www.w3.org/2000/svg" xmlns:xlink="http://www.w3.org/1999/xlink">
    <!-- Generator: Sketch 56.2 (81672) - https://sketch.com -->
    <title>Group 4</title>
    <desc>Created with Sketch.</desc>
    <g id="Page-1" stroke="none" stroke-width="1" fill="none" fill-rule="evenodd">
        <g id="Home" transform="translate(-185.000000, -41.000000)">
            <g id="M">
                <g id="Group-4" transform="translate(185.000000, 41.000000)">
                    <g id="sba-logo">
                        <g>
                            <circle id="Oval" fill="#FFFFFF" fill-rule="nonzero" cx="53.8054351" cy="53.9142595" r="53.5877863"></circle>
                            <path d="M76.2702595,36.7422595 L76.2702595,33.6143817 L75.816,33.4404275 C75.6634809,33.3761221 71.9914809,31.9539847 67.0935573,31.9539847 C61.8526718,31.9539847 57.324916,33.5558473 53.6537405,36.7051603 C49.9734962,33.5558473 45.4548092,31.9539847 40.204855,31.9539847 C35.3085802,31.9539847 31.6341069,33.3761221 31.4799389,33.4404275 L31.0355725,33.6143817 L31.0355725,36.509771 C29.5483053,36.7892519 28.6241221,37.2880305 28.6241221,38.0976183 L28.6241221,67.9212824 L50.5901679,67.9212824 C51.3502901,68.6055573 52.4673893,69.0309618 53.7089771,69.0309618 C54.9447939,69.0309618 56.0627176,68.6055573 56.8178931,67.9212824 L78.2356947,67.9212824 L78.2356947,38.0976183 C78.2348702,37.4331298 77.4871145,37.0027786 76.2702595,36.7422595 L76.2702595,36.7422595 Z M53.4138321,65.5749618 C51.589374,64.8214351 45.3080611,62.4314198 39.0160305,62.4314198 C36.5295573,62.4314198 34.3291603,62.8114809 32.4494656,63.5650076 L32.4494656,34.6012214 C33.5509008,34.241771 36.5295573,33.3761221 40.2040305,33.3761221 C45.0376489,33.3761221 49.1869924,34.8403053 52.5720916,37.6829313 L52.5720916,54.9728244 L53.4138321,54.0494656 L53.4138321,65.5749618 Z M74.8464733,63.5732519 C72.8282748,62.7636641 70.5198779,62.3563969 67.9583817,62.3563969 C61.6671756,62.3563969 55.6834809,64.7670229 53.8911756,65.5592977 L53.8911756,54.0502901 L54.7238473,54.9736489 L54.7238473,37.6829313 C58.109771,34.8411298 62.2591145,33.3761221 67.0935573,33.3761221 C70.7597863,33.3761221 73.752458,34.241771 74.8464733,34.6012214 L74.8464733,63.5732519 Z" id="Shape" fill="#11558F" fill-rule="nonzero"></path>
                            <g id="Group" transform="translate(28.854962, 72.549618)" fill="#11558F" fill-rule="nonzero">
                                <path d="M0.568854962,2.78491603 C0.568854962,2.11383206 1.10885496,1.77829008 2.18967939,1.77993288 C3.32656489,1.77993288 3.89459542,2.07755725 3.89459542,2.67279389 C3.89459542,2.72967939 3.87728244,2.7750229 3.84183206,2.80964885 C3.80638168,2.84592366 3.76021374,2.86241221 3.70415267,2.86241221 L3.24,2.86241221 C3.0899542,2.86241221 2.97123664,2.808 2.88137405,2.69752672 C2.76760305,2.55654962 2.56067176,2.48564885 2.26140458,2.48564885 C1.84836641,2.48564885 1.64308397,2.58540458 1.64473282,2.7840916 C1.64473282,2.87807634 1.72552672,2.95557252 1.88629008,3.01822901 C2.04705344,3.08006107 2.2440916,3.13447328 2.47575573,3.18146565 C2.70741985,3.22763359 2.93825954,3.28781679 3.16827481,3.36036641 C3.39829008,3.43291603 3.59450382,3.54916031 3.75526718,3.70745038 C3.91603053,3.86574046 3.996,4.06690076 3.996,4.30928244 C3.996,4.98119084 3.42467176,5.31673282 2.28119084,5.31427311 C1.14265649,5.31427311 0.572977099,5.01829008 0.572977099,4.42470229 C0.572977099,4.36864122 0.590290076,4.32164885 0.626564885,4.28537405 C0.662839695,4.24909924 0.709007634,4.23178626 0.764244275,4.23178626 L1.22674809,4.23178626 C1.37596947,4.23178626 1.49468702,4.28784733 1.58372519,4.39996947 C1.69832061,4.54094656 1.90442748,4.61019847 2.20369466,4.60854962 C2.68021374,4.60854962 2.91847328,4.50879389 2.91847328,4.31010687 C2.91847328,4.21612214 2.83767939,4.13862595 2.67691603,4.07679389 C2.51615267,4.0141374 2.31829008,3.95890076 2.08580153,3.91025954 C1.85331298,3.86161832 1.62164885,3.80061069 1.39328244,3.72970992 C1.16491603,3.65798473 0.969526718,3.54174046 0.808763359,3.38180153 C0.649648855,3.22351145 0.568854962,3.024 0.568854962,2.78491603 Z" id="Path"></path>
                                <path d="M4.50714504,0.984366412 C4.50714504,0.928305344 4.52528244,0.882961832 4.56155725,0.845862595 C4.59783206,0.809587786 4.64317557,0.791450382 4.69676336,0.791450382 L5.39340458,0.791450382 C5.44946565,0.791450382 5.49563359,0.809587786 5.53025954,0.845862595 C5.56570992,0.882961832 5.5830229,0.928305344 5.5830229,0.984366412 L5.5830229,1.93905344 C5.91938931,1.83352672 6.21865649,1.78076336 6.48247328,1.78076336 C6.98290076,1.78076336 7.38109924,1.93328244 7.67624427,2.23667176 C7.97138931,2.54006107 8.11896183,2.97783206 8.11896183,3.55080916 C8.11896183,4.7280916 7.4701374,5.31673282 6.1741374,5.31673282 C5.87322137,5.31673282 5.56158779,5.2829313 5.23923664,5.21450382 C4.91606107,5.14772519 4.67203053,5.06445802 4.50632061,4.96717557 L4.50632061,0.984366412 L4.50714504,0.984366412 Z M5.58384733,2.6579542 L5.58384733,4.49065649 C5.76192366,4.53929771 5.98039695,4.56320611 6.2400916,4.56320611 C6.53193893,4.56320611 6.73969466,4.48323664 6.8608855,4.32329771 C6.98207634,4.16418321 7.04308397,3.9061374 7.04308397,3.54998473 C7.04308397,3.19300763 6.98372519,2.93496183 6.86418321,2.77419847 C6.74464122,2.61508397 6.54265649,2.53429008 6.25905344,2.53429008 C6.07685496,2.53264122 5.85178626,2.57303817 5.58384733,2.6579542 Z" id="Shape"></path>
                                <path d="M8.87908397,5.02900763 C8.60454962,4.83856489 8.46687023,4.56815267 8.46687023,4.22024427 C8.46687023,3.87233588 8.60454962,3.60439695 8.87908397,3.41725191 C9.15361832,3.23010687 9.50812214,3.13777099 9.94177099,3.13777099 L10.9723053,3.13777099 C10.9723053,2.89456489 10.9211908,2.72555725 10.8189618,2.63074809 C10.7167328,2.5351145 10.5559695,2.48647328 10.3358473,2.48647328 C10.0464733,2.48647328 9.84448855,2.55737405 9.72741985,2.69835115 C9.63838168,2.80882443 9.51966412,2.86323664 9.37044275,2.86323664 L8.9071145,2.86323664 C8.85105344,2.86323664 8.8048855,2.84592366 8.76943511,2.80964885 C8.73316031,2.77337405 8.7150229,2.72803053 8.7150229,2.67361832 C8.7150229,2.07838168 9.28058015,1.78076336 10.4108702,1.78076336 C10.9047023,1.78076336 11.3012519,1.89123664 11.6005191,2.11218321 C11.8989618,2.33312977 12.0490076,2.67526718 12.0490076,3.13777099 L12.0490076,5.06363359 C12.0490076,5.11969466 12.0316947,5.16503817 11.9962443,5.20048855 C11.9607939,5.23593893 11.9154504,5.25325191 11.8593893,5.25325191 L11.2583817,5.25325191 C11.2023206,5.25325191 11.1561527,5.2351145 11.1215267,5.19883969 C11.0860763,5.16256489 11.0687634,5.11722137 11.0687634,5.06363359 L11.0687634,4.96717557 C10.7414656,5.20131298 10.3655267,5.31838168 9.94259542,5.3159084 C9.50812214,5.3159084 9.15361832,5.22109924 8.87908397,5.02900763 Z M9.54357252,4.22024427 C9.54357252,4.33483969 9.58726718,4.428 9.67465649,4.50054962 C9.7620458,4.57392366 9.88570992,4.61019847 10.0456489,4.61019847 C10.3655267,4.61019847 10.674687,4.51621374 10.9723053,4.3290687 L10.9723053,3.84348092 L10.015145,3.84348092 C9.86922137,3.84348092 9.75462595,3.87975573 9.67053435,3.95065649 C9.58479389,4.0199084 9.54357252,4.11059542 9.54357252,4.22024427 Z" id="Shape"></path>
                                <path d="M12.4950229,3.48238168 L12.4950229,3.11303817 C12.4950229,3.0569771 12.5131603,3.01080916 12.5494351,2.97370992 C12.5857099,2.93743511 12.6310534,2.92012214 12.6846412,2.92012214 L15.0309618,2.92012214 C15.0870229,2.92012214 15.1331908,2.93743511 15.1694656,2.97370992 C15.2057405,3.01080916 15.2238779,3.0569771 15.2238779,3.11303817 L15.2238779,3.48238168 C15.2238779,3.53844275 15.2057405,3.58461069 15.1694656,3.61923664 C15.1331908,3.65468702 15.0861985,3.672 15.0309618,3.672 L12.6846412,3.672 C12.6285802,3.672 12.5832366,3.65468702 12.5477863,3.61923664 C12.5123359,3.58461069 12.4950229,3.53844275 12.4950229,3.48238168 Z" id="Path"></path>
                                <path d="M15.4745038,3.54998473 C15.4745038,2.96793893 15.6352672,2.52687023 15.9567939,2.22842748 C16.2783206,1.92998473 16.7334046,1.77993893 17.3228702,1.77993893 C17.8785344,1.77993893 18.3113588,1.87145038 18.6205191,2.05447328 C18.9296794,2.23667176 19.0846718,2.50625954 19.0846718,2.86241221 C19.0846718,2.91764885 19.0665344,2.96464122 19.0294351,2.99926718 C18.9923359,3.03471756 18.9453435,3.05285496 18.8892824,3.05285496 L18.4193588,3.05285496 C18.2767328,3.05285496 18.155542,2.97618321 18.0566107,2.82531298 C17.9329466,2.63074809 17.706229,2.53346565 17.3789313,2.53346565 C17.0780153,2.53346565 16.865313,2.61261069 16.74,2.77090076 C16.614687,2.92919084 16.5520305,3.1888855 16.5520305,3.54916031 C16.5520305,3.90531298 16.6163359,4.16253435 16.745771,4.32247328 C16.8752061,4.48241221 17.0961527,4.56238168 17.4094351,4.56238168 C17.7367328,4.56238168 17.9634504,4.46509924 18.0871145,4.27053435 C18.1860458,4.11801527 18.3072366,4.04216794 18.4498626,4.04216794 L18.9197863,4.04216794 C18.9766718,4.04216794 19.0236641,4.05948092 19.0599389,4.09575573 C19.0962137,4.13120611 19.1151756,4.17654962 19.1151756,4.22931298 C19.1151756,4.5871145 18.9610076,4.85752672 18.6526718,5.03972519 C18.3443359,5.22274809 17.9123359,5.31425954 17.3566718,5.31425954 C16.7490687,5.31425954 16.2832672,5.16421374 15.9592672,4.86577099 C15.6352672,4.56732824 15.4745038,4.12873282 15.4745038,3.54998473 Z" id="Path"></path>
                                <path d="M19.8497405,4.86741985 C19.5265649,4.5689771 19.3658015,4.12873282 19.3658015,3.54668702 C19.3658015,2.96464122 19.5265649,2.52522137 19.8497405,2.22677863 C20.172916,1.92833588 20.6378931,1.77993893 21.2454962,1.77993893 C21.8530992,1.77993893 22.3189008,1.92916031 22.6420763,2.22677863 C22.9652519,2.52439695 23.1276641,2.96464122 23.1276641,3.54668702 C23.1276641,4.12873282 22.9660763,4.56815267 22.6420763,4.86741985 C22.3180763,5.16668702 21.8522748,5.3159084 21.2454962,5.3159084 C20.6370687,5.3159084 20.1720916,5.1658626 19.8497405,4.86741985 Z M20.6354198,2.73957252 C20.5068092,2.90775573 20.4425038,3.17569466 20.4425038,3.54503817 C20.4425038,3.91438168 20.5068092,4.18479389 20.6354198,4.35380153 C20.7640305,4.52445802 20.9676641,4.61019847 21.2446718,4.61019847 C21.5225038,4.61019847 21.7261374,4.52445802 21.8555725,4.35380153 C21.9858321,4.18479389 22.0501374,3.91438168 22.0501374,3.54503817 C22.0501374,3.17651908 21.9850076,2.90858015 21.8555725,2.73957252 C21.7261374,2.57138931 21.5225038,2.48647328 21.2446718,2.48647328 C20.9676641,2.48647328 20.7640305,2.57138931 20.6354198,2.73957252 Z" id="Shape"></path>
                                <path d="M23.6355115,5.06363359 L23.6355115,2.03551145 C23.6355115,1.98027481 23.6536489,1.93328244 23.6899237,1.89700763 C23.7261985,1.86073282 23.771542,1.84341985 23.8251298,1.84341985 L24.521771,1.84341985 C24.5778321,1.84341985 24.6231756,1.86073282 24.658626,1.89700763 C24.6940763,1.93328244 24.7113893,1.98027481 24.7113893,2.03551145 L24.7113893,2.23172519 C25.0683664,1.93080916 25.4311145,1.77993893 25.800458,1.77993893 C26.238229,1.77993893 26.5836641,1.90277863 26.8359389,2.14928244 C27.0898626,2.39496183 27.216,2.77090076 27.216,3.27709924 L27.216,5.06280916 C27.216,5.11887023 27.198687,5.16421374 27.1624122,5.19966412 C27.125313,5.2351145 27.079145,5.25242748 27.023084,5.25242748 L26.3297405,5.25242748 C26.2736794,5.25242748 26.2275115,5.23429008 26.1928855,5.19801527 C26.1574351,5.16174046 26.1392977,5.11639695 26.1392977,5.06280916 L26.1392977,3.27709924 C26.1392977,2.77914504 25.9414351,2.53181679 25.5448855,2.53346565 C25.2860153,2.53346565 25.0081832,2.6818626 24.7113893,2.97865649 L24.7113893,5.06280916 C24.7113893,5.11887023 24.6932519,5.16421374 24.6569771,5.19966412 C24.6207023,5.2351145 24.5753588,5.25242748 24.521771,5.25242748 L23.8259542,5.25242748 C23.7698931,5.25242748 23.7237252,5.2351145 23.6890992,5.19966412 C23.6536489,5.16503817 23.6355115,5.11969466 23.6355115,5.06363359 Z" id="Path"></path>
                                <path d="M27.7238473,2.78491603 C27.7238473,2.11383206 28.2630229,1.77829008 29.3446718,1.77993288 C30.4815573,1.77993288 31.0495878,2.07755725 31.0495878,2.67279389 C31.0495878,2.72967939 31.0322748,2.7750229 30.9968244,2.80964885 C30.961374,2.84592366 30.9152061,2.86241221 30.8599695,2.86241221 L30.3958168,2.86241221 C30.245771,2.86241221 30.1270534,2.808 30.0371908,2.69752672 C29.9225954,2.55654962 29.7164885,2.48564885 29.4172214,2.48564885 C29.0033588,2.48564885 28.7980763,2.58540458 28.7997252,2.7840916 C28.7997252,2.87807634 28.8813435,2.95557252 29.0421069,3.01822901 C29.2028702,3.08006107 29.3999084,3.13447328 29.6315725,3.18146565 C29.8632366,3.22763359 30.0949008,3.28781679 30.324916,3.36036641 C30.5549313,3.43291603 30.751145,3.54916031 30.9119084,3.70745038 C31.0718473,3.86574046 31.1526412,4.06690076 31.1526412,4.30928244 C31.1526412,4.98119084 30.581313,5.31673282 29.4386565,5.31427311 C28.2992977,5.31427311 27.7304427,5.01829008 27.7304427,4.42470229 C27.7304427,4.36864122 27.7477557,4.32164885 27.7840305,4.28537405 C27.8203053,4.24909924 27.8672977,4.23178626 27.9225344,4.23178626 L28.3850382,4.23178626 C28.5342595,4.23178626 28.6529771,4.28784733 28.7420153,4.39996947 C28.8566107,4.54094656 29.063542,4.61019847 29.3628092,4.60854962 C29.8385038,4.60854962 30.0767634,4.50879389 30.0767634,4.31010687 C30.0767634,4.21612214 29.9959695,4.13862595 29.8352061,4.07679389 C29.6744427,4.0141374 29.4765802,3.95890076 29.2440916,3.91025954 C29.0116031,3.86161832 28.7799389,3.80061069 28.5515725,3.72970992 C28.3232061,3.65798473 28.1278168,3.54174046 27.966229,3.38180153 C27.8038168,3.22351145 27.7238473,3.024 27.7238473,2.78491603 Z" id="Path"></path>
                                <path d="M31.6604885,3.81874809 L31.6604885,2.03551145 C31.6604885,1.98027481 31.678626,1.93328244 31.7149008,1.89700763 C31.7511756,1.86073282 31.7965191,1.84341985 31.8509313,1.84341985 L32.5475725,1.84341985 C32.6028092,1.84341985 32.6489771,1.86073282 32.6844275,1.89700763 C32.7198779,1.93328244 32.7371908,1.98027481 32.7371908,2.03551145 L32.7371908,3.81627481 C32.7371908,4.31422901 32.934229,4.56238168 33.3283053,4.56238168 C33.5871756,4.56238168 33.8666565,4.41316031 34.1659237,4.11471756 L34.1659237,2.03551145 C34.1659237,1.98027481 34.1840611,1.93328244 34.2195115,1.89700763 C34.2557863,1.86073282 34.3019542,1.84341985 34.3547176,1.84341985 L35.0497099,1.84341985 C35.1049466,1.84341985 35.1511145,1.86073282 35.1873893,1.89700763 C35.2236641,1.93328244 35.2418015,1.98027481 35.2418015,2.03551145 L35.2418015,5.06363359 C35.2418015,5.11969466 35.2236641,5.16503817 35.1873893,5.20048855 C35.1511145,5.23593893 35.1049466,5.25325191 35.0497099,5.25325191 L34.3547176,5.25325191 C34.2994809,5.25325191 34.2541374,5.2351145 34.2178626,5.19883969 C34.1824122,5.16174046 34.1659237,5.11639695 34.1659237,5.06280916 L34.1659237,4.86329771 C33.8089466,5.16421374 33.445374,5.3159084 33.076855,5.3159084 C32.639084,5.3159084 32.2936489,5.1930687 32.0405496,4.94738931 C31.7874504,4.70170992 31.6604885,4.32494656 31.6604885,3.81874809 Z" id="Path"></path>
                                <path d="M35.940916,5.06363359 L35.940916,0.984366412 C35.940916,0.928305344 35.9590534,0.882961832 35.9961527,0.845862595 C36.0324275,0.809587786 36.0769466,0.791450382 36.1305344,0.791450382 L36.828,0.791450382 C36.8840611,0.791450382 36.9294046,0.809587786 36.964855,0.845862595 C37.0003053,0.882961832 37.0176183,0.928305344 37.0176183,0.984366412 L37.0176183,5.06363359 C37.0176183,5.11969466 36.9994809,5.16503817 36.9632061,5.20048855 C36.9269313,5.23593893 36.8815878,5.25325191 36.828,5.25325191 L36.1305344,5.25325191 C36.0752977,5.25325191 36.0291298,5.23593893 35.9936794,5.20048855 C35.958229,5.16503817 35.940916,5.11969466 35.940916,5.06363359 Z" id="Path"></path>
                                <path d="M37.7159084,3.91603053 L37.7159084,0.984366412 C37.7159084,0.928305344 37.7340458,0.882961832 37.771145,0.845862595 C37.8074198,0.809587786 37.8519389,0.791450382 37.9055267,0.791450382 L38.6029924,0.791450382 C38.6590534,0.791450382 38.7043969,0.809587786 38.7398473,0.845862595 C38.7752977,0.882137405 38.7926107,0.928305344 38.7926107,0.983541985 L38.7926107,2.02067176 L39.6607328,2.02067176 C39.7167939,2.02067176 39.7621374,2.03798473 39.7975878,2.07343511 C39.8330382,2.1088855 39.8503511,2.15505344 39.8503511,2.21029008 L39.8503511,2.5829313 C39.8503511,2.63816794 39.8322137,2.68433588 39.7959389,2.71978626 C39.7596641,2.75523664 39.7143206,2.77254962 39.6607328,2.77254962 L38.7926107,2.77254962 L38.7926107,3.92839695 C38.7926107,4.14274809 38.8429008,4.30763359 38.9418321,4.42470229 C39.0415878,4.54177099 39.1734962,4.59948092 39.3400305,4.59948092 C39.3960916,4.59948092 39.4702901,4.5928855 39.5634504,4.58134351 C39.6566107,4.56815267 39.7242137,4.56320611 39.7662595,4.56320611 L39.880855,4.56320611 C39.936916,4.56320611 39.9839084,4.58051908 40.0201832,4.61514504 C40.056458,4.64894656 40.073771,4.69346565 40.073771,4.74787786 L40.073771,5.07187786 C40.073771,5.1180458 40.056458,5.15761832 40.0201832,5.19224427 C39.9839084,5.22687023 39.936916,5.24748092 39.880855,5.25572519 C39.6698015,5.29612214 39.3936183,5.31591814 39.0531298,5.31591814 C38.1627481,5.31838168 37.7159084,4.85010687 37.7159084,3.91603053 Z" id="Path"></path>
                                <path d="M40.3903511,4.86412214 L40.3903511,4.66873282 C40.3903511,4.53187786 40.4258015,4.42717557 40.4950534,4.35380153 C40.5651298,4.28125191 40.6640611,4.2449771 40.7926718,4.2449771 L41.1603664,4.2449771 C41.2914504,4.2449771 41.3912061,4.28125191 41.460458,4.35380153 C41.5288855,4.42717557 41.5635115,4.53187786 41.5635115,4.66873282 L41.5635115,4.86412214 C41.5635115,4.99520611 41.5288855,5.09743511 41.460458,5.17245802 C41.3912061,5.24748092 41.2914504,5.28458015 41.1603664,5.28458015 L40.7926718,5.28458015 C40.6615878,5.28458015 40.5626565,5.24748092 40.4934046,5.17245802 C40.4249771,5.09743511 40.3903511,4.99520611 40.3903511,4.86412214 Z" id="Path"></path>
                                <path d="M42.1884275,5.06363359 L42.1884275,2.03551145 C42.1884275,1.98027481 42.2057405,1.93328244 42.2428397,1.89700763 C42.2791145,1.86073282 42.3236336,1.84341985 42.3772214,1.84341985 L43.074687,1.84341985 C43.1307481,1.84341985 43.1760916,1.86073282 43.211542,1.89618321 C43.2469924,1.93245802 43.2643053,1.97780153 43.2643053,2.03303817 L43.2643053,2.2259542 C43.4761832,2.07425954 43.6798168,1.96296183 43.8752061,1.88958779 C44.0714198,1.81703817 44.3286412,1.78076336 44.6460458,1.78076336 C44.7012824,1.78076336 44.7474504,1.79890076 44.7837252,1.83435115 C44.8208244,1.86980153 44.8389618,1.91432061 44.8389618,1.96708397 L44.8389618,2.4328855 C44.8389618,2.48812214 44.8208244,2.53346565 44.7837252,2.5680916 C44.7474504,2.60271756 44.7012824,2.62003053 44.6460458,2.62003053 L44.5462901,2.62003053 C44.4984733,2.62003053 44.4209771,2.61673282 44.3138015,2.6101374 C44.2049771,2.60436641 44.1241832,2.6010687 44.0672977,2.6010687 C43.7869924,2.6010687 43.5198779,2.75523664 43.2643053,3.06439695 L43.2643053,5.06198473 C43.2643053,5.11722137 43.2461679,5.16421374 43.2098931,5.19966412 C43.1736183,5.23429008 43.1282748,5.25242748 43.074687,5.25242748 L42.3772214,5.25242748 C42.3219847,5.25242748 42.2758168,5.2351145 42.2403664,5.19966412 C42.204916,5.16421374 42.1884275,5.11969466 42.1884275,5.06363359 Z" id="Path"></path>
                                <path d="M45.2198473,3.81874809 L45.2198473,2.03551145 C45.2198473,1.98027481 45.2379847,1.93328244 45.275084,1.89700763 C45.3113588,1.86073282 45.3558779,1.84341985 45.4102901,1.84341985 L46.1069313,1.84341985 C46.1629924,1.84341985 46.2091603,1.86073282 46.2437863,1.89700763 C46.2792366,1.93328244 46.2965496,1.98027481 46.2965496,2.03551145 L46.2965496,3.81627481 C46.2965496,4.31422901 46.4935878,4.56238168 46.8876641,4.56238168 C47.1473588,4.56238168 47.4260153,4.41316031 47.7252824,4.11471756 L47.7252824,2.03551145 C47.7252824,1.98027481 47.7425954,1.93328244 47.7788702,1.89700763 C47.815145,1.86073282 47.861313,1.84341985 47.9149008,1.84341985 L48.6090687,1.84341985 C48.6643053,1.84341985 48.7104733,1.86073282 48.7475725,1.89700763 C48.7838473,1.93328244 48.8011603,1.98027481 48.8011603,2.03551145 L48.8011603,5.06363359 C48.8011603,5.11969466 48.7838473,5.16503817 48.7475725,5.20048855 C48.7104733,5.23593893 48.6643053,5.25325191 48.6090687,5.25325191 L47.9149008,5.25325191 C47.8588397,5.25325191 47.8134962,5.2351145 47.7780458,5.19883969 C47.7425954,5.16174046 47.7252824,5.11639695 47.7252824,5.06280916 L47.7252824,4.86329771 C47.3683053,5.16421374 47.0055573,5.3159084 46.6362137,5.3159084 C46.1992672,5.3159084 45.8538321,5.1930687 45.6007328,4.94738931 C45.3468092,4.70170992 45.2198473,4.32494656 45.2198473,3.81874809 Z" id="Path"></path>
                            </g>
                            <path d="M53.7485496,104.858107 C25.584458,104.858107 2.67114504,81.9456183 2.67114504,53.7815267 C2.67114504,25.6174351 25.584458,2.70412214 53.7485496,2.70412214 C81.9126412,2.70412214 104.825954,25.6174351 104.825954,53.7815267 C104.825954,81.9456183 81.9126412,104.858107 53.7485496,104.858107 Z M53.7485496,5.02158779 C26.8623206,5.02158779 4.98861069,26.8952977 4.98861069,53.7815267 C4.98861069,80.6677557 26.8623206,102.541466 53.7485496,102.541466 C80.6347786,102.541466 102.509313,80.6685802 102.509313,53.7815267 C102.509313,26.8944733 80.6356031,5.02158779 53.7485496,5.02158779 Z" id="Shape" fill="#11558F" fill-rule="nonzero"></path>
                            <g id="Group" transform="translate(8.244275, 8.244275)" fill="#11558F" fill-rule="nonzero">
                                <path d="M12.4307176,67.4027176 L8.40421374,68.3837863 C7.30854962,68.6525496 6.38354198,68.0944122 5.62919084,66.709374 L4.54671756,64.715084 C4.49725191,64.6243969 4.49065649,64.5287634 4.5269313,64.4314809 C4.56320611,64.3325496 4.62751145,64.2591756 4.71819847,64.2088855 L9.33993893,61.702626 C9.43639695,61.650687 9.53615267,61.6416183 9.63838168,61.6754198 C9.74143511,61.7083969 9.8189313,61.7735267 9.87087023,61.8699847 L10.248458,62.5658015 C10.3028702,62.6672061 10.3160611,62.7677863 10.2855573,62.8683664 C10.2550534,62.9689466 10.1899237,63.0472672 10.0885191,63.1016794 L9.1560916,63.6070534 L10.578229,66.2287328 L11.6483359,65.9715115 C11.7629313,65.9418321 11.8750534,65.953374 11.9871756,66.0044885 C12.0992977,66.0564275 12.1817405,66.1298015 12.2345038,66.227084 L12.6318779,66.9608244 C12.6846412,67.0572824 12.6904122,67.1496183 12.6508397,67.2345344 C12.6252824,67.2930687 12.5840611,67.3375878 12.5271756,67.3680916 C12.499145,67.3821069 12.4669924,67.3936489 12.4307176,67.4027176 Z M9.37868702,66.5181069 L8.1090687,64.1767328 L6.17743511,65.2245802 L6.7471145,66.2749008 C6.87490076,66.5115115 7.05462595,66.6796947 7.28464122,66.7827481 C7.51465649,66.8858015 7.76033588,66.9055878 8.02085496,66.8437557 L9.37868702,66.5181069 Z" id="Shape"></path>
                                <path d="M8.99038168,60.912 L4.03557252,62.5930076 C3.93169466,62.628458 3.82946565,62.6218626 3.72641221,62.5740458 C3.62418321,62.5254046 3.5549313,62.4495573 3.52030534,62.3465038 L3.26555725,61.5970992 C3.23010687,61.4932214 3.23917557,61.3918168 3.2911145,61.2928855 C3.34305344,61.1939542 3.42054962,61.1263511 3.52442748,61.0917252 L5.43132824,60.4445496 L5.14030534,59.5879695 C5.06116031,59.3538321 4.92760305,59.1699847 4.74045802,59.0364275 C4.55331298,58.9036947 4.29032061,58.8047634 3.95230534,58.7421069 L2.64476336,58.4964275 C2.34219847,58.4428397 2.14845802,58.2944427 2.06354198,58.0537099 L1.75108397,57.1328244 C1.71563359,57.0289466 1.73212214,56.9547481 1.80054962,56.9110534 C1.81703817,56.8995115 1.83517557,56.8912672 1.85331298,56.8846718 C1.91432061,56.8640611 1.9951145,56.8615878 2.09487023,56.8780763 L3.9539542,57.211145 C4.22436641,57.2589618 4.4609771,57.3348092 4.6621374,57.4395115 C4.86412214,57.5450382 5.03807634,57.7115725 5.18317557,57.9407634 C5.16091603,57.7527939 5.21038168,57.535145 5.33074809,57.2878168 C5.4511145,57.041313 5.59621374,56.8112977 5.76357252,56.5961221 L7.01340458,55.0610382 C7.07523664,54.9901374 7.13377099,54.9439695 7.18983206,54.9258321 C7.21374046,54.9175878 7.23764885,54.9134656 7.26155725,54.9151145 C7.34235115,54.9175878 7.40006107,54.9703511 7.43551145,55.0734046 L7.74549618,55.9860458 C7.78012214,56.0899237 7.78177099,56.2127634 7.74961832,56.3578626 C7.71664122,56.5021374 7.65975573,56.6249771 7.57896183,56.7263817 L6.70424427,57.8055573 C6.49071756,58.0652519 6.34314504,58.3035115 6.264,58.5195115 C6.18485496,58.7355115 6.18567939,58.9638779 6.26729771,59.2037863 L6.55832061,60.0603664 L8.49572519,59.4024733 C8.59877863,59.3678473 8.69935878,59.3744427 8.79416794,59.4239084 C8.8889771,59.4725496 8.9549313,59.5492214 8.98955725,59.6522748 L9.24430534,60.4016794 C9.2789313,60.5047328 9.27151145,60.6077863 9.22122137,60.707542 C9.17175573,60.8089466 9.09425954,60.8765496 8.99038168,60.912 Z" id="Path"></path>
                                <path d="M7.05215267,55.2275725 L2.92836641,54.8128855 C1.80549618,54.7007634 1.11874809,53.8672672 0.868122137,52.3099237 L0.511969466,50.0691298 C0.495480916,49.9660763 0.521038168,49.8745649 0.587816794,49.7945954 C0.65459542,49.714626 0.73951145,49.6659847 0.841740458,49.6503206 L6.03398473,48.8242443 C6.14198473,48.8069313 6.23926718,48.8316641 6.32500763,48.8976183 C6.41074809,48.9635725 6.46268702,49.0509618 6.47917557,49.1589618 L6.60366412,49.9405191 C6.62180153,50.0534656 6.60036641,50.1532214 6.53853435,50.237313 C6.47670229,50.3230534 6.38848855,50.3741679 6.27471756,50.3923053 L5.22687023,50.5580153 L5.69514504,53.5036947 L6.78916031,53.6166412 C6.90705344,53.6273588 7.01010687,53.6751756 7.09832061,53.760916 C7.18653435,53.8466565 7.23929771,53.9447634 7.25661069,54.0527634 L7.38769466,54.875542 C7.40500763,54.9851908 7.38109924,55.0725802 7.31432061,55.1401832 C7.27062595,55.188 7.21703817,55.216855 7.15355725,55.2259237 C7.12387786,55.2308702 7.09007634,55.2300458 7.05215267,55.2275725 Z M4.46922137,53.3775573 L4.05123664,50.7468092 L1.88134351,51.0922443 L2.06931298,52.2736489 C2.11135878,52.5382901 2.22430534,52.7575878 2.40650382,52.931542 C2.58952672,53.1046718 2.81459542,53.2052519 3.0808855,53.2341069 L4.46922137,53.3775573 Z" id="Shape"></path>
                                <path d="M5.94494656,48.5728454 L5.5409771,48.5645496 C5.43132824,48.5629008 5.33899237,48.5225038 5.26561832,48.4441832 C5.19141985,48.3658626 5.15514504,48.2735267 5.15679389,48.1647023 L5.16256489,47.8374046 L1.99016794,46.9981374 C0.892030534,46.7087634 0.355328244,45.786229 0.380061069,44.2305344 L0.421282443,41.9559389 C0.422931298,41.8462901 0.462503817,41.7539542 0.54,41.6781069 C0.617496183,41.6022595 0.710656489,41.5651603 0.819480916,41.5667565 L6.07685496,41.6607939 C6.18650382,41.6624427 6.27719084,41.7028397 6.35056489,41.7811603 C6.42393893,41.8594809 6.45938931,41.9534656 6.45691603,42.0631145 L6.3480916,48.1820153 C6.34644275,48.2916641 6.3060458,48.3848244 6.22772519,48.4606718 C6.14940458,48.5365191 6.05377099,48.5744427 5.94494656,48.5728454 Z M5.19141985,46.2042137 L5.24418321,43.2329771 L1.59032061,43.1678473 L1.56806107,44.4193282 C1.5631145,44.6814962 1.63319084,44.9016183 1.77581679,45.0780458 C1.91926718,45.2552977 2.12125191,45.3781374 2.38177099,45.4473893 L5.19141985,46.2042137 Z" id="Shape"></path>
                                <path d="M6.19062595,40.8050382 L1.0379542,39.8429313 C0.930778626,39.823145 0.846687023,39.767084 0.786503817,39.6755725 C0.726320611,39.5848855 0.706534351,39.4851298 0.726320611,39.3779542 L1.61752672,34.6061679 C1.63731298,34.4989924 1.69337405,34.4140763 1.7848855,34.3530687 C1.87639695,34.2912366 1.97532824,34.270626 2.08332824,34.2912366 L2.47328244,34.3629618 C2.58045802,34.3827481 2.66537405,34.4379847 2.72720611,34.5278473 C2.78903817,34.6177099 2.80964885,34.7166412 2.7898626,34.8238168 L2.11712977,38.4282137 L3.31667176,38.652458 L3.89624427,35.5484885 C3.91603053,35.441313 3.9720916,35.3563969 4.0619542,35.2945649 C4.15181679,35.2335573 4.25074809,35.2121221 4.35957252,35.2327328 L4.74952672,35.3052824 C4.85752672,35.3250687 4.94244275,35.3803053 5.00427481,35.4709924 C5.0669313,35.560855 5.08754198,35.6597863 5.0669313,35.7677863 L4.48735878,38.8717557 L5.70751145,39.0992977 L6.37941985,35.503145 C6.39920611,35.3959695 6.45361832,35.3118779 6.54183206,35.2525191 C6.6300458,35.1939847 6.72815267,35.173374 6.83532824,35.1939847 L7.23270229,35.2681832 C7.34070229,35.2879695 7.42479389,35.3440305 7.48662595,35.435542 C7.54845802,35.5270534 7.5690687,35.6268092 7.54845802,35.7339847 L6.66137405,40.4843359 C6.64158779,40.5923359 6.58635115,40.6772519 6.49566412,40.7407328 C6.40580153,40.8050382 6.30357252,40.8256489 6.19062595,40.8050382 Z" id="Path"></path>
                                <path d="M7.26650382,34.8403053 L2.39578626,32.9498931 C2.28861069,32.9086718 2.21193893,32.837771 2.16659542,32.7380153 C2.12125191,32.6382595 2.1179542,32.536855 2.15835115,32.4338015 L2.78326718,30.8236947 C2.82366412,30.7206412 2.8978626,30.637374 3.00668702,30.5738931 C3.11551145,30.5095878 3.22763359,30.4815573 3.34140458,30.4898015 L7.1461374,30.6233588 L4.24745038,28.1541985 C4.15841221,28.0832977 4.09410687,27.9868397 4.05700763,27.8656489 C4.0199084,27.744458 4.02155725,27.6331603 4.06112977,27.5301069 L4.68687023,25.9175267 C4.72726718,25.8144733 4.79734351,25.7427481 4.89792366,25.7007023 C4.99850382,25.6594809 5.10238168,25.6594809 5.20873282,25.7007023 L10.0794504,27.5911145 C10.186626,27.6331603 10.2616489,27.7048855 10.3053435,27.8062901 C10.3490382,27.9085191 10.3498626,28.0115725 10.3094656,28.1154504 L10.0283359,28.8392977 C9.98793893,28.944 9.91703817,29.0190229 9.81728244,29.0643664 C9.71587786,29.1105344 9.61282443,29.1130076 9.50564885,29.0709618 L5.67123664,27.5828702 L8.99203053,30.4642443 C9.07447328,30.5384427 9.13300763,30.6349008 9.16680916,30.7536183 C9.20061069,30.8723359 9.19731298,30.9819847 9.15774046,31.0842137 L8.9400916,31.6448244 C8.90051908,31.7470534 8.82879389,31.8294962 8.7240916,31.8929771 C8.62021374,31.956458 8.51221374,31.9886107 8.39926718,31.9902595 L4.00589313,31.8731908 L7.84030534,33.3612824 C7.94748092,33.4033282 8.02250382,33.474229 8.06619847,33.576458 C8.1090687,33.6778626 8.11071756,33.780916 8.07032061,33.8847939 L7.79001527,34.6061679 C7.74961832,34.7100458 7.67871756,34.7858931 7.5781374,34.8328855 C7.47838168,34.8798779 7.37367939,34.8823511 7.26650382,34.8403053 Z" id="Path"></path>
                                <path d="M10.5098015,26.9497099 L6.08839695,24.1351145 C5.9911145,24.0732824 5.93258015,23.9891908 5.91032061,23.8820153 C5.8888855,23.7756641 5.90949618,23.6717863 5.97380153,23.5720305 L6.38436641,22.9265038 C6.44537405,22.8308702 6.52864122,22.7698626 6.63581679,22.7434809 C6.74299237,22.7170992 6.84192366,22.7327634 6.93425954,22.7921221 L10.4900153,25.0543511 L8.2409771,20.7557863 C8.18326718,20.6420153 8.15193893,20.5158779 8.14699237,20.3781985 C8.14122137,20.2405191 8.16430534,20.1308702 8.21624427,20.0500763 L8.88980153,18.9915115 C8.94916031,18.8983511 9.03242748,18.8406412 9.13960305,18.8183817 C9.24677863,18.7961221 9.34653435,18.8142595 9.43969466,18.8727939 L13.8610992,21.6873893 C13.9534351,21.7459237 14.0103206,21.8300153 14.0317557,21.9404885 C14.0531908,22.0509618 14.0334046,22.1531908 13.9732214,22.2488244 L13.5618321,22.8943511 C13.5016489,22.9891603 13.4167328,23.0501679 13.3087328,23.0765496 C13.2007328,23.1021069 13.1009771,23.0856183 13.0086412,23.027084 L9.71258015,20.9297405 L11.8173435,24.8993588 C11.874229,25.0131298 11.9039084,25.140916 11.9047328,25.2827176 C11.9055573,25.4245191 11.8767023,25.5424122 11.8173435,25.6355725 L11.0613435,26.8227481 C11.0019847,26.9159084 10.9187176,26.9752672 10.8107176,27.0008244 C10.7018931,27.0247328 10.6021374,27.0082443 10.5098015,26.9497099 Z" id="Path"></path>
                                <path d="M14.3269008,21.5183817 C14.2939237,21.5076641 14.2650687,21.4903511 14.2395115,21.4672672 C14.1974656,21.4293435 14.1669618,21.3765802 14.1471756,21.3098015 L13.494229,19.1440305 C12.7052519,19.5043053 12.0077863,19.4070229 11.4010076,18.8530076 C10.9409771,18.4358473 10.7307481,17.9527328 10.7703206,17.4028397 C10.8098931,16.853771 11.0489771,16.336855 11.4883969,15.8520916 L13.7028092,13.4109618 C13.7720611,13.3342901 13.8602748,13.2930687 13.966626,13.289771 C14.0729771,13.2856489 14.1661374,13.3202748 14.2469313,13.3936489 L18.1423511,16.9254962 C18.223145,16.9988702 18.2651908,17.0895573 18.2684885,17.1967328 C18.2717863,17.3039084 18.2363359,17.3978931 18.1629618,17.478687 L17.6287328,18.0681527 C17.5553588,18.1489466 17.4638473,18.1918168 17.3541985,18.1967634 C17.2445496,18.2017099 17.1480916,18.1662595 17.0656489,18.0912366 L15.7539847,16.9024122 L14.7424122,18.0170382 L15.3805191,19.9610382 C15.478626,20.2438168 15.4390534,20.4820763 15.2618015,20.6782901 L14.5486718,21.4647939 C14.4868397,21.5323969 14.4126412,21.5505344 14.3269008,21.5183817 Z M12.4529771,17.6650076 C12.8181985,17.9964275 13.1578626,17.9906565 13.4703206,17.6460458 L14.8710229,16.1018931 L13.7737099,15.1059847 L12.3730076,16.6501374 C12.0605496,16.9947481 12.0869313,17.3327634 12.4529771,17.6650076 Z" id="Shape"></path>
                                <path d="M17.5166107,10.4834198 C17.4679695,10.4520916 17.4292214,10.4166412 17.4011908,10.3787176 C17.3731603,10.3407939 17.3583206,10.2970992 17.3566718,10.2509313 C17.3492519,10.1610687 17.3904733,10.0843969 17.4803359,10.0225649 L18.2124275,9.51966412 C18.4350229,9.36714504 18.6600916,9.36632061 18.8909313,9.51801527 L19.9536183,10.2080611 C20.2636031,10.4067481 20.5554504,10.5139237 20.8283359,10.5287634 C21.1012214,10.5436031 21.3831756,10.4512672 21.6741985,10.2509313 L22.1012519,9.95743511 L21.4985954,7.73642748 C21.4623206,7.61523664 21.4647939,7.49734351 21.5060153,7.38357252 C21.5472366,7.26980153 21.6148397,7.18076336 21.7104733,7.11563359 L22.4112366,6.63416794 C22.5010992,6.57233588 22.5901374,6.55749618 22.6767023,6.58964885 C22.7278168,6.60861069 22.7690382,6.64158779 22.8003664,6.68858015 C22.8209771,6.71908397 22.8374656,6.75535878 22.8498321,6.79740458 L23.9446718,10.811542 C24.1004885,11.3754504 24.1054351,11.8890687 23.9578626,12.3532214 C23.8102901,12.817374 23.4524885,13.2452519 22.8836336,13.6360305 L22.0476641,14.2106565 C21.9578015,14.2724885 21.8588702,14.2963969 21.7541679,14.2807328 C21.6486412,14.2650687 21.565374,14.2156031 21.5076641,14.130687 L21.2545649,13.7621679 C21.1960305,13.6772519 21.1778931,13.5832672 21.1993282,13.4810382 C21.2207634,13.3779847 21.2792977,13.2938931 21.3732824,13.2295878 L21.4837557,13.152916 C21.5464122,13.1100458 21.6420458,13.0440916 21.7706565,12.9558779 C21.8992672,12.8676641 21.997374,12.8000611 22.0674504,12.7514198 L22.14,12.7011298 C22.600855,12.3845496 22.708855,11.8692824 22.4656489,11.1536794 L22.1672061,11.3589618 C21.5843359,11.7596336 21.048458,11.953374 20.5595725,11.9410076 C20.070687,11.9278168 19.524916,11.7340763 18.9239084,11.3597863 L17.5166107,10.4834198 Z" id="Path"></path>
                                <path d="M26.4163053,10.4974351 C25.7345038,10.2665954 25.1730687,9.68042748 24.7328244,8.73975573 C24.2925802,7.79908397 24.2051908,6.99196947 24.4698321,6.31841221 C24.7344733,5.64485496 25.3420763,5.08589313 26.2926412,4.64152672 L27.1500458,4.24085496 C27.7320916,3.96879389 28.3157863,3.8789313 28.9027786,3.96961832 C29.489771,4.06030534 29.9052824,4.36616794 30.149313,4.88720611 C30.2193893,5.03725191 30.2235115,5.16668702 30.1625038,5.27468702 C30.1006718,5.38268702 30.0264733,5.4568855 29.9399084,5.49728244 L29.4716336,5.71658015 C29.2300763,5.82952672 28.9769771,5.77758779 28.7123359,5.56076336 C28.3363969,5.24748092 27.9299542,5.19224427 27.4930076,5.39670229 L26.8145038,5.71328244 C26.2580153,5.97380153 25.9356641,6.26977099 25.8490992,6.60119084 C25.7625344,6.93261069 25.8697099,7.42067176 26.1714504,8.06619847 C26.4731908,8.71090076 26.7790534,9.10745038 27.0898626,9.25419847 C27.3998473,9.40177099 27.8334962,9.3448855 28.3908092,9.08436641 L29.1501069,8.7298626 C29.5870534,8.52540458 29.8047023,8.17914504 29.8030534,7.69108397 C29.802229,7.34977099 29.9192977,7.12470229 30.1559084,7.01422901 L30.6101679,6.80235115 C30.6555115,6.78091603 30.7090992,6.76772519 30.7701069,6.7619542 C30.8311145,6.75700763 30.905313,6.77596947 30.9927023,6.81966412 C31.0800916,6.86335878 31.1476947,6.93755725 31.1963359,7.04061069 C31.4403664,7.56247328 31.4115115,8.07691603 31.1089466,8.5831145 C30.8063817,9.08931298 30.3669618,9.47679389 29.7890382,9.74720611 L28.8549618,10.1825038 C27.9118168,10.6235725 27.0989313,10.7282748 26.4163053,10.4974351 Z" id="Path"></path>
                                <path d="M32.2326412,8.19151145 L30.8756336,3.12870229 C30.8476031,3.02317557 30.859145,2.92259542 30.9127328,2.82696183 C30.9654962,2.73132824 31.0446412,2.66949618 31.1501679,2.64064122 L36.4281527,1.22592366 C36.5336794,1.19789313 36.6342595,1.21108397 36.7290687,1.26714504 C36.8238779,1.32320611 36.8848855,1.40482443 36.9137405,1.50952672 L38.2707481,6.57151145 C38.2987786,6.67703817 38.2847029,6.77761832 38.2270534,6.87325191 C38.1701679,6.9688855 38.0885496,7.02989313 37.9830229,7.05874809 L37.2270229,7.26155725 C37.1214962,7.29041221 37.020916,7.27722137 36.924458,7.22280916 C36.828,7.16922137 36.7661679,7.08842748 36.7381374,6.98290076 L35.5855878,2.68516031 L32.6135267,3.48238168 L33.7660763,7.78012214 C33.7941069,7.88564885 33.7817405,7.98622901 33.7265038,8.08021374 C33.6720916,8.1750229 33.5921221,8.23603053 33.485771,8.2648855 L32.7215267,8.47016794 C32.616,8.49819847 32.5154198,8.48583206 32.4189618,8.43141985 C32.3225038,8.37700763 32.2606718,8.29703817 32.2326412,8.19151145 Z" id="Path"></path>
                                <path d="M39.1199084,6.45526718 L38.6227786,1.23746565 C38.6128855,1.12864122 38.6425649,1.03218321 38.7134656,0.949740458 C38.7843664,0.866473282 38.8750534,0.820305344 38.9838779,0.810412214 L43.8150229,0.350381679 C43.9246718,0.339664122 44.0211298,0.370167939 44.1052214,0.441068702 C44.189313,0.511969466 44.2363053,0.601832061 44.2470229,0.710656489 L44.2841221,1.10473282 C44.2948397,1.21355725 44.2651603,1.31083969 44.1959084,1.3949313 C44.1266565,1.4790229 44.0376183,1.52683969 43.9279695,1.53673282 L40.278229,1.88464122 L40.3936489,3.09984733 L43.5371908,2.80058015 C43.6460153,2.79068702 43.7424733,2.81954198 43.8273893,2.88961832 C43.9114809,2.95969466 43.9584733,3.04955725 43.9691908,3.15838168 L44.0062901,3.55328244 C44.0170076,3.6629313 43.9873282,3.75938931 43.9180763,3.84430534 C43.8488244,3.92922137 43.7597863,3.97621374 43.6501374,3.98610687 L40.5074198,4.28537405 L40.625313,5.52201527 L44.2668092,5.17575573 C44.3756336,5.16503817 44.4704427,5.19389313 44.5520611,5.26232061 C44.6336794,5.33074809 44.6790229,5.41896183 44.6897405,5.52861069 L44.7276641,5.9309313 C44.7383817,6.03975573 44.7078779,6.13703817 44.6369771,6.22112977 C44.5660763,6.3060458 44.4762137,6.35303817 44.3665649,6.3629313 L39.5560305,6.82131298 C39.4472061,6.83203053 39.3499237,6.80235115 39.2641832,6.73309924 C39.1792672,6.66219847 39.1314504,6.5698626 39.1199084,6.45526718 Z" id="Path"></path>
                                <path d="M45.167084,5.81551145 L45.6741069,0.598534351 C45.6848244,0.489709924 45.7326412,0.399847328 45.8183817,0.328946565 C45.9041221,0.258870229 46.0014046,0.228366412 46.110229,0.239083969 L46.8975573,0.315755725 C47.0080305,0.326473282 47.0962443,0.372641221 47.1654962,0.455908397 C47.2347481,0.539175573 47.2644275,0.63480916 47.2537099,0.743633588 L46.8225344,5.17658015 L48.6585344,5.35465649 L49.0888855,0.921709924 C49.0996031,0.812885496 49.1482443,0.724671756 49.2331603,0.657068702 C49.3189008,0.588641221 49.4170076,0.560610687 49.5250076,0.571328244 L50.3123359,0.648 C50.4211603,0.658717557 50.5101985,0.706534351 50.5794504,0.792274809 C50.6495267,0.878015267 50.6775573,0.97529771 50.6668397,1.08412214 L50.237313,5.50882443 L52.0766107,5.68772519 L52.5069618,1.25477863 C52.5176794,1.1459542 52.5646718,1.05691603 52.6495878,0.989312977 C52.7345038,0.920885496 52.8309618,0.892854962 52.9397863,0.903572519 L53.7295878,0.980244275 C53.8392366,0.990961832 53.9282748,1.03877863 53.9983511,1.12451908 C54.0667786,1.21025954 54.096458,1.30754198 54.0857405,1.41636641 L53.579542,6.63251908 C53.568,6.74216794 53.5210076,6.83120611 53.4360916,6.90045802 C53.352,6.96970992 53.255542,6.99938931 53.1467176,6.98867176 L45.5248855,6.24833588 C45.4160611,6.23761832 45.3261985,6.18980153 45.2552977,6.10570992 C45.1868702,6.02079389 45.1563664,5.92433588 45.167084,5.81551145 Z" id="Path"></path>
                                <path d="M54.3520305,6.912 L55.9085496,1.90772519 C55.9415267,1.8030229 56.0066565,1.72470229 56.1047634,1.67276336 C56.2036947,1.62082443 56.3075725,1.61258015 56.4180458,1.64638168 L57.1649771,1.87887023 C57.2696794,1.91184733 57.3471756,1.9769771 57.3974656,2.07425954 C57.4477557,2.17236641 57.456,2.27377099 57.4230229,2.37764885 L56.8607634,4.18644275 L59.6258931,5.04632061 L60.1889771,3.23752672 C60.2211298,3.13282443 60.2862595,3.05450382 60.3851908,3.00256489 C60.4832977,2.95145038 60.5847023,2.94155725 60.6894046,2.97370992 L61.4371603,3.20619847 C61.5468092,3.24082443 61.6267786,3.30677863 61.6770687,3.4048855 C61.7281832,3.50299237 61.7356031,3.60357252 61.7034504,3.70827481 L60.1461069,8.71254962 C60.1139542,8.81642748 60.048,8.89392366 59.9490687,8.94421374 C59.8501374,8.99450382 59.747084,9.00274809 59.6432061,8.97059542 L58.8954504,8.73810687 C58.7915725,8.7059542 58.7116031,8.64247328 58.6596641,8.54848855 C58.6077252,8.45450382 58.5970076,8.35474809 58.6291603,8.2500458 L59.2713893,6.18403053 L56.5062595,5.32415267 L55.8640305,7.39016794 C55.8318779,7.49487023 55.7675725,7.57154198 55.6719389,7.61935878 C55.5763053,7.668 55.4765496,7.67541985 55.3718473,7.64244275 L54.6240916,7.4099542 C54.5193893,7.37780153 54.4394198,7.31267176 54.3858321,7.21456489 C54.329771,7.11810687 54.3198779,7.01670229 54.3520305,6.912 Z" id="Path"></path>
                                <path d="M61.5080611,9.07694656 C61.2277557,8.36629008 61.3390534,7.52619847 61.8419542,6.5550229 C62.344855,5.58467176 62.9672977,5.00922137 63.7092824,4.8270229 C64.4512672,4.64482443 65.3144427,4.80970992 66.300458,5.32085496 C67.2864733,5.832 67.9179847,6.44125191 68.1966412,7.1519084 C68.4761221,7.86174046 68.3631756,8.70265649 67.8610992,9.67300763 C67.3590229,10.6433588 66.7365802,11.2196336 65.9962443,11.4018321 C65.255084,11.5840305 64.3919084,11.4199695 63.4058931,10.9096489 C62.4207023,10.3985038 61.787542,9.78842748 61.5080611,9.07694656 Z M64.3226565,6.1469313 C63.9145649,6.3151145 63.5567634,6.69517557 63.2500763,7.28793893 C62.9433893,7.88070229 62.8395115,8.3910229 62.9376183,8.82054962 C63.0357252,9.25007634 63.3663206,9.60952672 63.9277557,9.90137405 C64.4900153,10.1923969 64.9747786,10.254229 65.3803969,10.0860458 C65.7860153,9.9178626 66.1429924,9.53862595 66.4505038,8.9458626 C66.7563664,8.35309924 66.8618931,7.8419542 66.7654351,7.41242748 C66.6689771,6.98290076 66.3392061,6.62262595 65.777771,6.33077863 C65.2155115,6.0389313 64.7307481,5.97792366 64.3226565,6.1469313 Z" id="Shape"></path>
                                <path d="M67.0457405,12.3622901 L70.1447634,8.12555725 C70.2131908,8.03239695 70.2997557,7.97798473 70.4061069,7.96149618 C70.5116336,7.94500763 70.6105649,7.97056489 70.7037252,8.03899237 L73.985771,10.4405496 C74.0781069,10.5089771 74.1325191,10.595542 74.1473588,10.6994198 C74.1630229,10.8049466 74.1358168,10.9038779 74.0673893,10.9962137 L73.8349008,11.3160916 C73.7664733,11.4084275 73.6807328,11.4636641 73.576855,11.4793282 C73.4729771,11.4958168 73.3748702,11.4694351 73.2817099,11.4010076 L70.9584733,9.70103817 L68.3269008,13.2988397 C68.261771,13.3870534 68.1760305,13.4381679 68.0696794,13.4530076 C67.9633282,13.4678473 67.8660458,13.4422901 67.7778321,13.3779847 L67.1397252,12.9105344 C67.0523359,12.846229 66.9970992,12.7604885 66.9789618,12.6541374 C66.9591756,12.5477863 66.9806107,12.4505038 67.0457405,12.3622901 Z" id="Path"></path>
                                <path d="M71.7878473,15.6402137 C71.7359084,14.8784427 72.0953588,14.1109008 72.8678473,13.3375878 C73.6411603,12.5642748 74.4070534,12.2031756 75.1696489,12.2542901 C75.9314198,12.3054046 76.7055573,12.7225649 77.4904122,13.5074198 C78.2752672,14.2922748 78.6940763,15.0647634 78.7451908,15.8257099 C78.7963053,16.5866565 78.4352061,17.3541985 77.6627176,18.1275115 C76.8910534,18.9008244 76.1243359,19.2627481 75.3633893,19.212458 C74.6016183,19.1621679 73.8283053,18.7458321 73.0434504,17.9609771 C72.2585954,17.1752977 71.8406107,16.4028092 71.7878473,15.6402137 Z M75.3559695,13.6962137 C74.9165496,13.733313 74.4598168,13.9880611 73.9890687,14.460458 C73.5183206,14.932855 73.2643969,15.3879389 73.2281221,15.8273588 C73.1926718,16.2659542 73.3987786,16.7094962 73.8472672,17.1563359 C74.2949313,17.6031756 74.7376489,17.8092824 75.1754198,17.7713588 C75.6131908,17.7334351 76.0674504,17.4795115 76.5381985,17.0071145 C77.009771,16.5347176 77.2645191,16.0796336 77.3024427,15.6402137 C77.339542,15.2016183 77.135084,14.7589008 76.6865954,14.3112366 C76.2397557,13.8635725 75.7962137,13.6582901 75.3559695,13.6962137 Z" id="Shape"></path>
                                <path d="M77.7872061,22.6132214 L82.2696183,19.8802443 C82.3677252,19.8200611 82.4691298,19.8027481 82.5738321,19.8283053 C82.6785344,19.8538626 82.7601527,19.9148702 82.8195115,20.0138015 L85.2870229,24.060916 C85.3439084,24.1540763 85.3595725,24.2538321 85.3331908,24.3610076 C85.3059847,24.4673588 85.2458015,24.5498015 85.1518168,24.606687 L84.814626,24.8127939 C84.7206412,24.8696794 84.6225344,24.8861679 84.5170076,24.863084 C84.4131298,24.84 84.3323359,24.7814656 84.2754504,24.6883053 L82.4204885,21.6478168 L81.5548397,22.1762748 L82.637313,23.9512672 C82.9942901,24.5357863 83.1443359,25.0930992 83.0890992,25.6207328 C83.0338626,26.1500153 82.7345954,26.5787176 82.1945954,26.9084885 C81.6545954,27.2382595 81.1360305,27.3058626 80.641374,27.1112977 C80.1458931,26.9167328 79.721313,26.5284275 79.3659847,25.9463817 L77.6544733,23.1392061 C77.5975878,23.0452214 77.5819237,22.9495878 77.6083053,22.8490076 C77.634687,22.7484275 77.6940458,22.6709313 77.7872061,22.6132214 Z M79.3000305,23.549771 L80.3825038,25.3247634 C80.6281832,25.727084 80.9571298,25.8029313 81.3693435,25.5514809 C81.7807328,25.3000305 81.8648244,24.9735573 81.619145,24.5712366 L80.5366718,22.7954198 L79.3000305,23.549771 Z" id="Shape"></path>
                                <path d="M81.1129466,28.1451298 L85.9861374,26.215145 C86.0924885,26.1730992 86.1963664,26.1739237 86.2952977,26.2184427 C86.394229,26.2637863 86.4659542,26.340458 86.5104733,26.4517557 L86.7924275,27.1632366 C86.8344733,27.2679389 86.8344733,27.3718168 86.7924275,27.4740458 C86.7512061,27.5762748 86.6794809,27.6471756 86.5780763,27.6875725 L82.6603969,29.2399695 L87.4618626,29.9407328 C87.5871756,29.9605191 87.707542,30.0091603 87.8229618,30.0858321 C87.9375573,30.1616794 88.0125802,30.2449466 88.0480305,30.3348092 L88.5105344,31.501374 C88.5509313,31.6044275 88.548458,31.7058321 88.5039389,31.8055878 C88.4585954,31.9061679 88.3852214,31.9762443 88.2838168,32.0158168 L83.410626,33.946626 C83.3092214,33.9870229 83.2069924,33.9829008 83.1055878,33.9367328 C83.0050076,33.8897405 82.932458,33.8138931 82.8904122,33.7083664 L82.608458,32.9968855 C82.5672366,32.8921832 82.5672366,32.7883053 82.6101069,32.6860763 C82.6529771,32.5838473 82.7255267,32.5121221 82.8261069,32.4717252 L86.4585344,31.0322748 L82.0090992,30.4081832 C81.8837863,30.3875725 81.7625954,30.336458 81.6471756,30.2540153 C81.5317557,30.1715725 81.4542595,30.0792366 81.4130382,29.9770076 L80.8952977,28.6686412 C80.8540763,28.5655878 80.8549008,28.4633588 80.8969466,28.3611298 C80.9398168,28.2572519 81.011542,28.1855267 81.1129466,28.1451298 Z" id="Path"></path>
                                <path d="M84.7461985,34.0562748 C84.9069618,34.0224733 85.0339237,34.0463817 85.1246107,34.1271756 C85.2152977,34.2079695 85.2713588,34.2945344 85.2894962,34.3852214 L85.3909008,34.8708092 C85.4436641,35.1239084 85.3340153,35.3530992 85.0603053,35.5592061 C84.9300458,35.6581374 84.8368855,35.7982901 84.7841221,35.9788397 C84.7313588,36.1593893 84.7247634,36.3481832 84.7668092,36.5460458 L85.0372214,37.8354504 C85.0990534,38.1347176 85.1938626,38.3490687 85.3216489,38.476855 C85.4477863,38.6046412 85.626687,38.6450382 85.8558779,38.5972214 C86.0858931,38.5485802 86.2342901,38.4405802 86.2985954,38.2723969 C86.3629008,38.1033893 86.3637252,37.8700763 86.3018931,37.5708092 L86.0784733,36.5072977 C86.0562137,36.4001221 86.0743511,36.3011908 86.1337099,36.2096794 C86.1938931,36.1181679 86.2779847,36.0612824 86.3843359,36.0381985 L86.7223511,35.9681221 C86.8237557,35.946687 86.9210382,35.964 87.0150229,36.0200611 C87.1073588,36.0761221 87.1658931,36.1552672 87.1865038,36.2574962 L87.3810687,37.1849771 C87.4503206,37.5172214 87.5509008,37.7505344 87.6819847,37.884916 C87.8130687,38.0201221 87.991145,38.0629924 88.2145649,38.0168244 C88.4379847,37.9698321 88.583084,37.8585344 88.6498626,37.6821069 C88.7158168,37.5065038 88.7141679,37.2525802 88.644916,36.9195115 L88.434687,35.9186565 C88.3423511,35.4734656 88.1082137,35.2014046 87.7339237,35.1016489 C87.4494962,35.0323969 87.2821374,34.8741069 87.2310229,34.6267786 L87.1279695,34.1370687 C87.1172519,34.0876031 87.1164275,34.0323664 87.1230229,33.9721832 C87.1312672,33.912 87.1667176,33.8443969 87.2310229,33.7685496 C87.2953282,33.6927023 87.3851908,33.6440611 87.497313,33.6201527 C87.9631145,33.5220458 88.3975878,33.6778626 88.7966107,34.0876031 C89.196458,34.4973435 89.4545038,34.9779847 89.5699237,35.5303511 L89.8345649,36.7950229 C90.1692824,38.3935878 89.736458,39.3194198 88.5327939,39.5708702 C88.0331908,39.6755725 87.5987176,39.5692214 87.2310229,39.2501679 C87.0529466,39.7407023 86.7025649,40.0399695 86.1790534,40.1504427 C85.5442443,40.2831756 85.0438168,40.1809466 84.6785954,39.8429313 C84.3141985,39.504916 84.0536794,38.9657405 83.898687,38.2237557 L83.5680916,36.6449771 C83.4510229,36.0876641 83.4971908,35.5418931 83.7049466,35.0076641 C83.9151756,34.475084 84.2614351,34.1576794 84.7461985,34.0562748 Z" id="Path"></path>
                                <path d="M84.8583206,40.9468397 L90.0959084,40.7440305 C90.2055573,40.7399084 90.3011908,40.7753588 90.3828092,40.8503817 C90.4644275,40.9254046 90.5072977,41.0210382 90.5114198,41.1356336 L90.5419237,41.9180153 C90.5460458,42.0276641 90.5105954,42.1224733 90.4347481,42.2024427 C90.3589008,42.2832366 90.2673893,42.3252824 90.156916,42.3294046 L88.2640305,42.4027786 L88.3769771,45.2965191 L90.2698626,45.223145 C90.3795115,45.2190229 90.4743206,45.2544733 90.5567634,45.3303206 C90.6392061,45.4053435 90.6812519,45.4985038 90.685374,45.6073282 L90.7150534,46.3897099 C90.72,46.5043053 90.6845496,46.6015878 90.6087023,46.6823817 C90.532855,46.7623511 90.4405191,46.8043969 90.3316947,46.8085191 L85.0941069,47.0121527 C84.984458,47.0162748 84.8896489,46.9791756 84.808855,46.9025038 C84.7288855,46.8250076 84.6876641,46.7318473 84.6827176,46.6230229 L84.6522137,45.8406412 C84.6480916,45.7309924 84.6810687,45.6353588 84.7527939,45.5537405 C84.8245191,45.4721221 84.9143817,45.4300763 85.0240305,45.4251298 L87.1856794,45.3435115 L87.0735573,42.4489466 L84.911084,42.5330382 C84.8022595,42.5371603 84.7082748,42.5017099 84.6316031,42.4283359 C84.5532824,42.3541374 84.5128855,42.262626 84.5095878,42.1529771 L84.479084,41.3705954 C84.4741374,41.2609466 84.5095878,41.1644885 84.5829618,41.0803969 C84.6579847,40.9954809 84.7494962,40.9509618 84.8583206,40.9468397 Z" id="Path"></path>
                                <path d="M85.0322748,47.872855 L90.2344122,48.5192061 C90.3432366,48.5332214 90.4298015,48.582687 90.4949313,48.6700763 C90.5600611,48.7574656 90.5864427,48.8563969 90.5732519,48.9643969 L89.9738931,53.7815267 C89.9598779,53.8903511 89.9104122,53.976916 89.8221985,54.0445191 C89.7348092,54.1112977 89.6358779,54.136855 89.5287023,54.1244885 L89.134626,54.0750229 C89.0258015,54.0610076 88.9392366,54.011542 88.8716336,53.9258015 C88.804855,53.8400611 88.7784733,53.7419542 88.7916641,53.6339542 L89.2434504,49.9949313 L88.0323664,49.8440611 L87.6415878,52.9777099 C87.6283969,53.0865344 87.5789313,53.1739237 87.4923664,53.2407023 C87.4058015,53.3074809 87.3076947,53.334687 87.1996947,53.3214962 L86.8047939,53.2720305 C86.6959695,53.2580153 86.6077557,53.2085496 86.5409771,53.1219847 C86.473374,53.0362443 86.4469924,52.9381374 86.4593588,52.8301374 L86.8501374,49.697313 L85.6167939,49.5439695 L85.1658321,53.1730992 C85.1526412,53.2819237 85.1031756,53.3684885 85.019084,53.4327939 C84.9333435,53.4970992 84.8377099,53.5226565 84.7288855,53.5094656 L84.3282137,53.4591756 C84.2193893,53.4451603 84.132,53.3956947 84.0652214,53.3074809 C83.9984427,53.2192672 83.9712366,53.1211603 83.9844275,53.0131603 L84.581313,48.2182901 C84.5953282,48.1094656 84.6447939,48.0212519 84.7313588,47.9528244 C84.8187481,47.8852214 84.9176794,47.8580153 85.0322748,47.872855 Z" id="Path"></path>
                                <path d="M84.4114809,54.408916 C85.0363969,54.0494656 85.8468092,54.0164885 86.8427176,54.3099847 C87.8394504,54.6026565 88.5031145,55.0717557 88.8320611,55.7156336 C89.1618321,56.3595115 89.179145,57.1847634 88.8831756,58.1913893 L88.6160611,59.0999084 C88.434687,59.7157557 88.116458,60.2137099 87.6589008,60.593771 C87.2013435,60.9738321 86.6984427,61.0826565 86.1460763,60.9202443 C85.9877863,60.8724275 85.8880305,60.7916336 85.8476336,60.6737405 C85.8072366,60.5558473 85.8006412,60.451145 85.8278473,60.3588092 L85.9745954,59.8625038 C86.0496183,59.6061069 86.2565496,59.4511145 86.5937405,59.3975267 C87.0785038,59.3233282 87.3884885,59.0545649 87.5245191,58.5912366 L87.7363969,57.8723359 C87.9103511,57.2820458 87.900458,56.8450992 87.7100153,56.5614962 C87.5187481,56.2762443 87.0818015,56.0338626 86.3983511,55.8327023 C85.7157252,55.6323664 85.2152977,55.5993893 84.9003664,55.733771 C84.5846107,55.8698015 84.3397557,56.2317252 84.1658015,56.8211908 L83.9291908,57.6258321 C83.7939847,58.0891603 83.9094046,58.4807634 84.2762748,58.8031145 C84.5334962,59.0265344 84.6241832,59.2647939 84.5499847,59.5154198 L84.4090076,59.9952366 C84.3941679,60.0447023 84.3686107,60.0925191 84.3331603,60.1428092 C84.2960611,60.1914504 84.2325802,60.2343206 84.1427176,60.2705954 C84.0520305,60.3068702 83.9530992,60.3085191 83.842626,60.2763664 C83.2894351,60.1147786 82.9242137,59.7520305 82.7444885,59.189771 C82.5655878,58.6283359 82.5655878,58.0421679 82.7461374,57.4304427 L83.0363359,56.4460763 C83.3265344,55.4460458 83.7865649,54.7667176 84.4114809,54.408916 Z" id="Path"></path>
                                <path d="M82.488916,59.8517863 L85.6159695,62.5715725 C86.4684275,63.311084 86.5467481,64.3894351 85.8517557,65.8058015 L84.8476031,67.8404885 C84.8006107,67.9336489 84.7272366,67.9938321 84.6266565,68.0202137 C84.5260763,68.0474198 84.4287939,68.0383511 84.3356336,67.9921832 L79.6199084,65.6664733 C79.5218015,65.6186565 79.4566718,65.5428092 79.4245191,65.4389313 C79.3931908,65.3358779 79.4014351,65.2352977 79.4492519,65.1371908 L79.7996336,64.4281832 C79.8507481,64.3243053 79.925771,64.2558779 80.0255267,64.2220763 C80.124458,64.1882748 80.2258626,64.1973435 80.3297405,64.2476336 L81.2803053,64.7167328 L82.5993893,62.0422901 L81.7724885,61.3167939 C81.6818015,61.2409466 81.624916,61.1428397 81.6026565,61.0216489 C81.5803969,60.9012824 81.5935878,60.7908092 81.642229,60.6918779 L82.0107481,59.9441221 C82.0602137,59.8460153 82.1302901,59.7883053 82.2234504,59.7709924 C82.2861069,59.7569771 82.3462901,59.7652214 82.4048244,59.7932519 C82.4320305,59.8080916 82.4600611,59.8278779 82.488916,59.8517863 Z M83.5276947,62.8535267 L82.3495878,65.2427176 L84.3207939,66.2147176 L84.8500763,65.1421374 C84.9687939,64.9014046 85.0034198,64.657374 84.9539542,64.4100458 C84.905313,64.163542 84.78,63.9500153 84.5788397,63.7735878 L83.5276947,62.8535267 Z" id="Shape"></path>
                            </g>
                            <g id="Group" transform="translate(18.961832, 78.320611)" fill="#11558F" fill-rule="nonzero">
                                <path d="M0.599358779,3.95230534 C0.589465649,3.38757252 0.884610687,2.83603053 1.48396947,2.29355725 C2.08332824,1.75108397 2.66290076,1.51447328 3.22433588,1.58125191 C3.78494656,1.64803053 4.34061069,1.98439695 4.89050382,2.59447328 C5.44039695,3.20290076 5.71987786,3.7890687 5.72894656,4.35380153 C5.73801527,4.91770992 5.4420458,5.47007634 4.84351145,6.01172519 C4.24415267,6.55337405 3.66375573,6.79080916 3.10479389,6.72567939 C2.54418321,6.65890076 1.98934351,6.32253435 1.43945038,5.71245802 C0.887908397,5.10403053 0.608427481,4.5178626 0.599358779,3.95230534 Z M3.30677863,2.65300763 C2.98030534,2.66454962 2.63487023,2.83520611 2.26882443,3.1649771 C1.90277863,3.49557252 1.69832061,3.82287023 1.65545038,4.14439695 C1.61258015,4.46757252 1.74778626,4.80229008 2.0610687,5.14937405 C2.37435115,5.49645802 2.69340458,5.66464122 3.01822901,5.65309924 C3.34305344,5.64238168 3.68848855,5.47172519 4.05370992,5.14112977 C4.4189313,4.81053435 4.62421374,4.48406107 4.66955725,4.16170992 C4.71407634,3.83935878 4.57887023,3.50464122 4.26558779,3.15673282 C3.95230534,2.81047328 3.63325191,2.6431145 3.30677863,2.65300763 Z" id="Shape"></path>
                                <path d="M4.72149618,6.5789313 C5.10980153,6.14528244 5.52366412,5.92433588 5.96225954,5.9160916 C6.40085496,5.90784733 6.83945038,6.10076336 7.27887023,6.49319084 C7.69273282,6.86335878 7.95407634,7.22033588 8.06290076,7.56247328 C8.17172519,7.90461069 8.10741985,8.20882443 7.86916031,8.47346565 C7.83206107,8.51551145 7.78754198,8.53777099 7.73642748,8.53941985 C7.68531298,8.54189313 7.63832061,8.5229313 7.59709924,8.48500763 L7.24671756,8.17172519 C7.14036641,8.07691603 7.09996947,7.94006107 7.12717557,7.76116031 C7.16509924,7.53279389 7.06122137,7.30937405 6.81719084,7.09090076 C6.59377099,6.89056489 6.38189313,6.80729771 6.18238168,6.84109924 C5.98369466,6.87654962 5.76439695,7.02824427 5.52366412,7.29618321 C5.28540458,7.56247328 5.16256489,7.79661069 5.15184733,8.00189313 C5.1419542,8.20717557 5.25325191,8.41410687 5.48738931,8.62351145 C5.73141985,8.84198473 5.96473282,8.92030534 6.18650382,8.85847328 C6.36210687,8.81065649 6.50308397,8.83538931 6.60943511,8.93019847 L6.95899237,9.24348092 C7.00103817,9.28140458 7.02412214,9.32674809 7.02741985,9.37703817 C7.03071756,9.4289771 7.01505344,9.47432061 6.97960305,9.51389313 C6.74134351,9.77935878 6.44619847,9.87746565 6.09416794,9.80903817 C5.74296183,9.73978626 5.35960305,9.51966412 4.94574046,9.14867176 C4.49312977,8.74387786 4.2449771,8.32177099 4.20375573,7.88317557 C4.16253435,7.44458015 4.33483969,7.01010687 4.72149618,6.5789313 Z" id="Path"></path>
                                <path d="M6.9029313,10.5180458 L8.70348092,8.08433588 C8.73728244,8.03899237 8.77850382,8.01261069 8.82961832,8.00601527 C8.8799084,7.99777099 8.92772519,8.0101374 8.97059542,8.04229008 L9.53120611,8.4569771 C9.57654962,8.4899542 9.60210687,8.532 9.60952672,8.58146565 C9.61612214,8.63175573 9.6029313,8.67874809 9.5699542,8.7240916 L8.9071145,9.62024427 L10.0027786,10.4298321 L10.6656183,9.53450382 C10.6994198,9.48916031 10.7406412,9.46277863 10.7917557,9.45535878 C10.8428702,9.4471145 10.890687,9.46112977 10.9352061,9.49410687 L11.4933435,9.90714504 C11.538687,9.94012214 11.5642443,9.98216794 11.5708397,10.0316336 C11.5774351,10.0827481 11.5642443,10.1297405 11.5312672,10.1742595 L9.73071756,12.6087939 C9.69691603,12.6541374 9.65569466,12.6796947 9.60705344,12.6871145 C9.55758779,12.6953588 9.51059542,12.6813435 9.46525191,12.6483664 L8.9071145,12.2353282 C8.86177099,12.2023511 8.83621374,12.1603053 8.82796947,12.1100153 C8.81972519,12.0597252 8.8320916,12.0119084 8.86424427,11.9690382 L9.55429008,11.0349618 L8.45862595,10.225374 L7.76858015,11.158626 C7.73477863,11.203145 7.69355725,11.2295267 7.64326718,11.2361221 C7.5929771,11.2427176 7.54598473,11.2303511 7.5031145,11.1981985 L6.94250382,10.7835115 C6.89716031,10.7505344 6.87160305,10.7084885 6.86418321,10.6606718 C6.85593893,10.6112061 6.86912977,10.5633893 6.9029313,10.5180458 Z" id="Path"></path>
                                <path d="M10.8222595,13.0844885 C10.6994198,12.6615573 10.7876336,12.2015267 11.0869008,11.7027481 C11.3861679,11.2039695 11.7513893,10.9096489 12.180916,10.8206107 C12.6104427,10.7315725 13.0861374,10.8428702 13.6071756,11.1561527 C14.1282137,11.4686107 14.4505649,11.8363053 14.5750534,12.2584122 C14.699542,12.6805191 14.6121527,13.1397252 14.3128855,13.6393282 C14.0127939,14.1372824 13.6475725,14.4324275 13.2163969,14.5214656 C12.7852214,14.6105038 12.3087023,14.4992061 11.7884885,14.1867481 C11.2674504,13.8734656 10.9450992,13.505771 10.8222595,13.0844885 Z M12.5914809,11.664 C12.3944427,11.7414962 12.2015267,11.9385344 12.011084,12.2551145 C11.8214656,12.5716947 11.737374,12.8363359 11.760458,13.0482137 C11.783542,13.260916 11.9138015,13.4381679 12.1520611,13.5807939 C12.3903206,13.7234198 12.6079695,13.7547481 12.8074809,13.6764275 C13.0061679,13.5972824 13.2015573,13.3994198 13.3911756,13.0828397 C13.5807939,12.7662595 13.6640611,12.5024427 13.6385038,12.2913893 C13.6129466,12.0803359 13.482687,11.903084 13.2444275,11.760458 C13.0061679,11.6178321 12.7885191,11.5856794 12.5914809,11.664 Z" id="Shape"></path>
                                <path d="M14.1216183,15.245313 L15.4308092,12.5148092 C15.4547176,12.4645191 15.4909924,12.4307176 15.5396336,12.414229 C15.5882748,12.3977405 15.636916,12.3993893 15.6855573,12.4232977 L17.3632672,13.2279389 C17.7185954,13.3994198 17.9741679,13.6063511 18.1308092,13.8512061 C18.2874504,14.0960611 18.2989924,14.3574046 18.1654351,14.6344122 C18.036,14.9048244 17.8216489,15.0573435 17.5240305,15.0878473 C17.7680611,15.409374 17.8092824,15.7399695 17.6485191,16.0796336 C17.4984733,16.392916 17.285771,16.5652214 17.0112366,16.5965496 C16.7367023,16.6287023 16.4019847,16.5495573 16.007084,16.3607634 L14.2106565,15.4992366 C14.159542,15.4745038 14.1265649,15.4398779 14.1100763,15.3920611 C14.0935878,15.3450687 14.0968855,15.2964275 14.1216183,15.245313 Z M15.3153893,15.245313 L16.2469924,15.6921527 C16.3500458,15.7416183 16.4423817,15.750687 16.5248244,15.7201832 C16.6080916,15.6896794 16.6715725,15.6278473 16.7160916,15.5338626 C16.7614351,15.4398779 16.7696794,15.3508397 16.7416489,15.2675725 C16.7136183,15.1843053 16.6484885,15.1183511 16.5454351,15.0688855 L15.6138321,14.6220458 L15.3153893,15.245313 Z M15.9196947,13.9847634 L16.7416489,14.3796641 C16.8257405,14.4200611 16.9065344,14.4283053 16.9840305,14.4027481 C17.0615267,14.3771908 17.1192366,14.3252519 17.1571603,14.2461069 C17.195084,14.1669618 17.2000305,14.0894656 17.1711756,14.0127939 C17.1423206,13.9369466 17.0854351,13.8792366 17.0013435,13.8380153 L16.1793893,13.4439389 L15.9196947,13.9847634 Z" id="Shape"></path>
                                <path d="M18.1390534,17.0681221 C17.9469618,16.7935878 17.9115115,16.4934962 18.0318779,16.1661985 C18.1522443,15.8389008 18.3740153,15.6344427 18.6963664,15.5552977 C19.0187176,15.4745038 19.3831145,15.5091298 19.7903817,15.6591756 L20.7566107,16.0153282 C20.8407023,15.7877863 20.8514198,15.6113588 20.7887634,15.4860458 C20.7261069,15.3607328 20.5909008,15.2609771 20.3839695,15.1843053 C20.1127328,15.085374 19.8983817,15.0820763 19.740916,15.1727634 C19.6197252,15.245313 19.4886412,15.256855 19.3484885,15.204916 L18.9140153,15.0458015 C18.8620763,15.0268397 18.8249771,14.9938626 18.803542,14.9468702 C18.7821069,14.8990534 18.780458,14.8520611 18.7994198,14.8009466 C19.0055267,14.2419847 19.638687,14.1578931 20.6989008,14.5470229 C21.1630534,14.7176794 21.4969466,14.9592366 21.7005802,15.2692214 C21.9050382,15.5800305 21.9272977,15.9526718 21.7673588,16.3863206 L21.1020458,18.1934656 C21.0822595,18.2454046 21.0501069,18.2825038 21.0047634,18.3039389 C20.9594198,18.3245496 20.9107786,18.325374 20.8580153,18.3064122 L20.2941069,18.0986565 C20.2421679,18.0796947 20.2050687,18.0467176 20.184458,17.9997252 C20.1638473,17.9543817 20.1630229,17.9065649 20.1819847,17.8554504 L20.2157863,17.7647634 C19.8266565,17.8711145 19.434229,17.8505038 19.0376794,17.7029313 C18.6312366,17.5537099 18.3319695,17.3426565 18.1390534,17.0681221 Z M19.042626,16.5371908 C19.0030534,16.6451908 19.0121221,16.7474198 19.0690076,16.8455267 C19.1258931,16.9436336 19.229771,17.0203053 19.3798168,17.075542 C19.6807328,17.1868397 20.0022595,17.2049771 20.3452214,17.1324275 L20.5134046,16.6773435 L19.6147786,16.3459237 C19.4779237,16.2956336 19.3583817,16.2898626 19.2545038,16.3269618 C19.150626,16.3640611 19.0805496,16.4341374 19.042626,16.5371908 Z" id="Shape"></path>
                                <path d="M21.9330687,18.4581069 L22.6989618,15.528916 C22.7129771,15.4753282 22.7426565,15.4349313 22.7863511,15.4085496 C22.8308702,15.3838168 22.8795115,15.3763969 22.9314504,15.3904122 L23.6058321,15.5668397 C23.6602443,15.5825038 23.6998168,15.6113588 23.725374,15.654229 C23.7501069,15.6979237 23.7558779,15.7473893 23.7418626,15.8018015 L23.4599084,16.8801527 L24.7789924,17.2247634 L25.0609466,16.1464122 C25.0749618,16.0928244 25.1038168,16.0524275 25.1483359,16.0260458 C25.1920305,16.0004885 25.2414962,15.9947176 25.2959084,16.0087328 L25.9669924,16.1843359 C26.0214046,16.1991756 26.0609771,16.2280305 26.0857099,16.2717252 C26.1104427,16.3154198 26.1162137,16.3640611 26.1021985,16.4192977 L25.3363053,19.3484885 C25.3222901,19.4020763 25.2934351,19.4424733 25.2505649,19.4680305 C25.2076947,19.4927634 25.1590534,19.4985344 25.1046412,19.4845191 L24.4335573,19.308916 C24.3799695,19.2949008 24.3395725,19.2652214 24.3131908,19.2223511 C24.2876336,19.1778321 24.2810382,19.1291908 24.2950534,19.0772519 L24.5885496,17.9543817 L23.2702901,17.609771 L22.9767939,18.7318168 C22.9627786,18.7854046 22.9330992,18.8258015 22.8894046,18.8513588 C22.8448855,18.8752672 22.7970687,18.8810382 22.7451298,18.8686718 L22.0707481,18.6914198 C22.0171603,18.678229 21.9767634,18.649374 21.9512061,18.6056794 C21.9248244,18.5611603 21.9190534,18.5125191 21.9330687,18.4581069 Z" id="Path"></path>
                                <path d="M26.4130076,19.524916 C26.1722748,19.2932519 26.0791145,19.0047023 26.1343511,18.660916 C26.1895878,18.3171298 26.3676641,18.0747481 26.6685802,17.933771 C26.9694962,17.7927939 27.3338931,17.7565191 27.7625954,17.8249466 L28.7791145,17.9881832 C28.8170382,17.7482748 28.7939542,17.5734962 28.7090382,17.4630229 C28.6232977,17.3525496 28.4716031,17.28 28.2547786,17.2445496 C27.9695267,17.1992061 27.7576489,17.2363053 27.6207939,17.3583206 C27.5152672,17.4514809 27.3891298,17.4877557 27.2423817,17.4638473 L26.7856489,17.3904733 C26.7304122,17.3814046 26.687542,17.3566718 26.6578626,17.314626 C26.6281832,17.2725802 26.6174656,17.2255878 26.6257099,17.172 C26.7196947,16.5850076 27.3256489,16.3797252 28.4410992,16.558626 C28.9291603,16.637771 29.302626,16.8100763 29.563145,17.0747176 C29.8236641,17.3410076 29.9168244,17.7021069 29.8434504,18.1580153 L29.5375878,20.0599695 C29.5293435,20.1152061 29.5037863,20.1572519 29.4642137,20.1861069 C29.4238168,20.2157863 29.376,20.2256794 29.3207634,20.2166107 L28.728,20.1218015 C28.6727634,20.1127328 28.6307176,20.088 28.6010382,20.0467786 C28.5721832,20.0047328 28.5622901,19.9577405 28.5705344,19.9041527 L28.5861985,19.8093435 C28.2250992,19.9890687 27.8359695,20.0434809 27.4188092,19.974229 C26.988458,19.9074504 26.6545649,19.7574046 26.4130076,19.524916 Z M27.1970382,18.8315725 C27.1789008,18.9445191 27.2077557,19.0434504 27.2819542,19.1283664 C27.3569771,19.2141069 27.4732214,19.2693435 27.6315115,19.2940763 C27.9472672,19.3460153 28.267145,19.3023206 28.5903206,19.1654656 L28.6669924,18.6856489 L27.7221985,18.5339542 C27.5787481,18.5116947 27.4592061,18.5273588 27.3652214,18.5842443 C27.2704122,18.6411298 27.2143511,18.7235725 27.1970382,18.8315725 Z" id="Shape"></path>
                                <path d="M32.6077263,20.3279084 L32.6588702,17.3014351 C32.6596947,17.245374 32.6786565,17.1992061 32.7157557,17.1629313 C32.752855,17.1283053 32.7981985,17.1101679 32.8517863,17.1109655 L34.7125191,17.1423206 C35.1065954,17.1497405 35.4256489,17.2313588 35.6705038,17.388 C35.9145344,17.5454656 36.0332519,17.7787786 36.0291298,18.0862901 C36.0233588,18.3863817 35.8922748,18.6130992 35.634229,18.7656183 C35.9903817,18.9552366 36.1659847,19.2388397 36.1610382,19.6147786 C36.1552672,19.9618626 36.0340763,20.207542 35.7974656,20.3509924 C35.560855,20.4944427 35.2236641,20.5620458 34.7858931,20.554626 L32.7932519,20.5208244 C32.7371908,20.52 32.6918473,20.5018626 32.6572214,20.4664122 C32.6234198,20.4301374 32.6069313,20.3839695 32.6077263,20.3279084 Z M33.6935267,19.8299542 L34.7257099,19.8472672 C34.8403053,19.8497405 34.9285191,19.8200611 34.9903511,19.7574046 C35.0530076,19.6963969 35.0851603,19.6123053 35.0868092,19.5084275 C35.088458,19.405374 35.0596031,19.320458 34.9994198,19.2561527 C34.9400611,19.1918473 34.8526718,19.1596947 34.7389008,19.1572214 L33.7058931,19.1399084 L33.6935267,19.8299542 Z M33.7166107,18.4325496 L34.6276031,18.4490382 C34.7207634,18.4498626 34.7974351,18.4243053 34.8576183,18.3682443 C34.9178015,18.3146565 34.9483053,18.2429313 34.9499542,18.1538931 C34.9516031,18.0656794 34.9227481,17.9931298 34.8650382,17.9354198 C34.8065038,17.8785344 34.7306565,17.8496794 34.6383206,17.8480305 L33.7265038,17.8323664 L33.7166107,18.4325496 Z" id="Shape"></path>
                                <path d="M38.8239389,20.1506565 L38.7654046,19.6996947 C38.7316031,19.4391756 38.7563359,19.2050382 38.8404275,18.9997557 C38.9236947,18.7944733 39.0424122,18.6262901 39.1974046,18.4960305 C39.3523969,18.3649466 39.5263511,18.2470534 39.7225649,18.1423511 C39.9187786,18.0376489 40.1158168,17.945313 40.3145038,17.8645191 C40.5123664,17.7837252 40.6937405,17.7103511 40.8578015,17.6435725 C41.022687,17.5767939 41.1521221,17.496 41.250229,17.4020153 C41.3458626,17.308855 41.387084,17.2033282 41.3722443,17.0879084 C41.3425649,16.8562443 41.261771,16.705374 41.1323359,16.6369466 C41.0020763,16.5693435 40.795145,16.552855 40.5107176,16.5899542 L40.2914198,16.6179847 C39.8940458,16.6699237 39.6500153,16.8298626 39.556855,17.098626 C39.4884275,17.3047328 39.3622901,17.4193282 39.1776183,17.4432366 L38.8099237,17.490229 C38.7728244,17.4951756 38.7324275,17.4935267 38.6895573,17.484458 C38.6450382,17.4753893 38.5963969,17.4448855 38.5436336,17.3929466 C38.4916947,17.3418321 38.4587176,17.2734046 38.448,17.189313 C38.4174962,16.9527023 38.4801527,16.728458 38.6367939,16.5190534 C38.7917863,16.308 38.9978931,16.1389924 39.2526412,16.0095573 C39.5090382,15.8809466 39.7819237,15.796855 40.0712977,15.7597557 L40.4876336,15.7061679 C40.7613435,15.6707176 41.0078473,15.6624733 41.2263206,15.6814351 C41.4464427,15.6995725 41.6500763,15.7515115 41.8380458,15.8356031 C42.0260153,15.9196947 42.1810076,16.0532519 42.3021985,16.2379237 C42.4225649,16.4234198 42.5000611,16.6567328 42.5363359,16.9395115 C42.5668397,17.1785954 42.540458,17.3962443 42.4563664,17.5916336 C42.3722748,17.7861985 42.2535573,17.9494351 42.0977405,18.0780458 C41.9419237,18.2066565 41.767145,18.3245496 41.5692824,18.4292519 C41.3722443,18.5331298 41.1743817,18.6246412 40.9781679,18.7037863 C40.7803053,18.7837557 40.5997557,18.8571298 40.4348702,18.9222595 C40.2708092,18.9890382 40.1389008,19.0640611 40.0399695,19.1489771 C39.9410382,19.2338931 39.8973435,19.3229313 39.9097099,19.4177405 L42.472855,19.087145 C42.557771,19.0764275 42.631145,19.0962137 42.6962748,19.1465038 C42.7597557,19.1967939 42.7976794,19.2619237 42.8075725,19.3418931 L42.8454962,19.6320916 C42.8562137,19.7120611 42.8347786,19.7846107 42.7844885,19.848916 C42.7325496,19.9123969 42.6665954,19.9503206 42.586626,19.9602137 L39.1619542,20.4029313 C39.0811603,20.4136489 39.0069618,20.3938626 38.9410076,20.3452214 C38.8725802,20.2957557 38.8338321,20.2314504 38.8239389,20.1506565 Z" id="Path"></path>
                                <path d="M43.3599389,18.666687 C43.1777405,18.4020458 43.0367634,18.0665038 42.9386565,17.6625344 C42.8405496,17.2585649 42.8125191,16.8966412 42.852916,16.5800611 C42.8949618,16.2626565 42.9980153,15.9980153 43.1629008,15.7844885 C43.3269618,15.5717863 43.5264733,15.3970076 43.7614351,15.2609771 C43.9947481,15.125771 44.2676336,15.0202443 44.580916,14.9435725 L44.7927939,14.892458 C45.1069008,14.8157863 45.3979237,14.7836336 45.6675115,14.7976489 C45.9370992,14.8116641 46.1943206,14.875145 46.4383511,14.988916 C46.6832061,15.1018626 46.8959084,15.2898321 47.0772824,15.5536489 C47.2603053,15.8158168 47.400458,16.1505344 47.4985649,16.5553282 C47.5966718,16.9601221 47.6255267,17.3220458 47.5843053,17.6402748 C47.543084,17.9585038 47.4400305,18.2247939 47.275145,18.4366718 C47.1102595,18.649374 46.9115725,18.8233282 46.6774351,18.9585344 C46.4449466,19.0945649 46.1712366,19.200916 45.8571298,19.2767634 L45.6452519,19.3287023 C45.331145,19.405374 45.0392977,19.4367023 44.7697099,19.422687 C44.5001221,19.4086718 44.2429008,19.3460153 43.9996947,19.2330687 C43.7556641,19.1192977 43.5421374,18.9305038 43.3599389,18.666687 Z M44.8941985,15.773771 C44.1340763,15.9584427 43.8620153,16.4967939 44.0788397,17.3871756 C44.2956641,18.2783817 44.7829008,18.6320611 45.5430229,18.4473893 C46.303145,18.2627176 46.5743817,17.7243664 46.3583817,16.8339847 C46.1423817,15.9427786 45.6543206,15.5899237 44.8941985,15.773771 Z" id="Shape"></path>
                                <path d="M48.3196947,17.4160305 C48.1078168,17.1744733 47.928916,16.8578931 47.7846412,16.4687634 C47.639542,16.0779847 47.5694656,15.7226565 47.5727634,15.4027786 C47.5768855,15.0820763 47.6486107,14.8067176 47.7879389,14.5767023 C47.9272672,14.3458626 48.1045191,14.1488244 48.3205191,13.9872366 C48.5365191,13.8256489 48.7953893,13.6879695 49.0971298,13.5758473 L49.3007634,13.5 C49.6041527,13.3870534 49.890229,13.3227481 50.1598168,13.3046107 C50.4277557,13.2872977 50.6907481,13.3202748 50.9463206,13.4043664 C51.2018931,13.488458 51.4360305,13.6508702 51.6479084,13.8907786 C51.8597863,14.130687 52.038687,14.4456183 52.1829618,14.8355725 C52.3280611,15.2255267 52.3989618,15.5816794 52.3948397,15.9032061 C52.3907176,16.2247328 52.3198168,16.500916 52.1804885,16.7309313 C52.0411603,16.9609466 51.8639084,17.1571603 51.6479084,17.3187481 C51.4327328,17.4803359 51.1730382,17.6171908 50.8704733,17.7301374 L50.6668397,17.8059847 C50.362626,17.9189313 50.0765496,17.9840611 49.8077863,18.001374 C49.5390229,18.018687 49.276855,17.9865344 49.0212824,17.9032672 C48.7665344,17.82 48.5323969,17.6575878 48.3196947,17.4160305 Z M49.5068702,14.364 C48.7723053,14.6360611 48.565374,15.2024427 48.8844275,16.0614962 C49.2034809,16.921374 49.7294656,17.2148702 50.4623817,16.9419847 C51.1961221,16.6707481 51.4030534,16.1043664 51.084,15.2444885 C50.7649466,14.3862595 50.2389618,14.0919389 49.5068702,14.364 Z" id="Shape"></path>
                                <path d="M52.840855,15.3285802 L52.2184122,14.0985344 C51.9521221,13.5700763 51.8985344,13.1323053 52.0584733,12.7827481 C52.2175878,12.4340153 52.561374,12.1256794 53.0914809,11.8585649 L53.7971908,11.5015878 C54.2135267,11.2905344 54.6076031,11.2064427 54.9810687,11.249313 C55.3528855,11.2921832 55.6101069,11.4512977 55.7494351,11.7274809 C55.8038473,11.8363053 55.8120916,11.9311145 55.7708702,12.0127328 C55.7304733,12.0935267 55.6810076,12.1495878 55.6191756,12.1800916 L55.2910534,12.3458015 C55.1467786,12.4191756 54.9761221,12.3960916 54.7823817,12.2757252 C54.6150229,12.1701985 54.3874809,12.1899847 54.0997557,12.3342595 L53.5861374,12.5939542 C53.3594198,12.709374 53.2176183,12.8371603 53.1607328,12.9797863 C53.1054962,13.1215878 53.1401221,13.3178015 53.2662595,13.5684275 L53.3181985,13.6706565 L54.4897099,13.0778931 C55.0181679,12.8116031 55.4666565,12.7052519 55.8351756,12.7588397 C56.2036947,12.8132519 56.5021374,13.0630534 56.7272061,13.5090687 C56.9522748,13.9559084 56.9778321,14.3442137 56.8014046,14.6739847 C56.6258015,15.0045802 56.2754198,15.3030229 55.7494351,15.5684885 L55.1418321,15.876 C54.6076031,16.1464122 54.1533435,16.2478168 53.7798779,16.1793893 C53.4064122,16.1126107 53.0931298,15.8290076 52.840855,15.3285802 Z M53.8870534,14.7984733 C54.0016489,15.0260153 54.131084,15.1529771 54.2720611,15.1810076 C54.414687,15.2090382 54.6026565,15.1636947 54.8384427,15.0441527 L55.2547786,14.8339237 C55.4823206,14.7185038 55.6331908,14.6022595 55.7040916,14.4818931 C55.7766412,14.3615267 55.7683969,14.2147786 55.6810076,14.0408244 C55.5927939,13.8652214 55.4790229,13.7720611 55.3405191,13.7605191 C55.2011908,13.7473282 55.0181679,13.7992672 54.790626,13.9155115 L53.7155725,14.4579847 L53.8870534,14.7984733 Z" id="Shape"></path>
                                <path d="M59.712458,13.0243053 L57.984458,10.5370076 C57.9523053,10.4908397 57.9407634,10.4430229 57.9498321,10.3919084 C57.9597252,10.3416183 57.9861069,10.3012214 58.030626,10.2707176 L59.9416489,8.94256489 C59.9878168,8.91041221 60.0356336,8.89969466 60.0850992,8.90876336 C60.1353893,8.91948092 60.1749618,8.94668702 60.2071145,8.99285496 L60.4181679,9.2970687 C60.4503206,9.34323664 60.4618626,9.39105344 60.4527939,9.44134351 C60.4420763,9.49080916 60.4156947,9.53038168 60.3703511,9.56170992 L59.1881221,10.3836641 L60.5954198,12.4101069 C60.6275725,12.4562748 60.6382901,12.5040916 60.6292214,12.5535573 C60.6193282,12.6038473 60.5921221,12.6434198 60.5476031,12.6739237 L59.9754504,13.0721221 C59.9292824,13.1034504 59.8822901,13.1149924 59.8328244,13.1059237 C59.7850076,13.0976794 59.7446107,13.0696489 59.712458,13.0243053 Z" id="Path"></path>
                                <path d="M62.4520305,10.834626 C62.0134351,10.8098931 61.6094656,10.5732824 61.2384733,10.1239695 C60.8674809,9.67548092 60.7124885,9.23358779 60.7726718,8.79829008 C60.8312061,8.36464122 61.0966718,7.95325191 61.5649466,7.56659542 C62.0340458,7.1791145 62.4883053,6.99856489 62.9269008,7.02247328 C63.3654962,7.04555725 63.7702901,7.28216794 64.140458,7.73065649 C64.5114504,8.17996947 64.6664427,8.62268702 64.6062595,9.05880916 C64.5477252,9.4949313 64.2822595,9.90632061 63.8139847,10.2929771 C63.3448855,10.680458 62.890626,10.8601832 62.4520305,10.834626 Z M61.7042748,8.69276336 C61.7125191,8.90381679 61.8328855,9.15361832 62.0678473,9.43722137 C62.3019847,9.72247328 62.5245802,9.88983206 62.7323359,9.93764885 C62.9400916,9.98793893 63.1503206,9.92363359 63.3646718,9.74720611 C63.5798473,9.57077863 63.6829008,9.37538931 63.6746565,9.1618626 C63.6655878,8.94751145 63.5443969,8.69770992 63.3094351,8.41410687 C63.0752977,8.12885496 62.8543511,7.96314504 62.6465954,7.91615267 C62.4396641,7.86751145 62.2286107,7.93346565 62.0142595,8.10989313 C61.7999084,8.28632061 61.696855,8.48170992 61.7042748,8.69276336 Z" id="Shape"></path>
                                <path d="M65.3886412,8.66225954 L65.1264733,8.40174046 C65.0860763,8.36216794 65.0671145,8.316 65.0671145,8.2648855 C65.0671145,8.21377099 65.0860763,8.16842748 65.1256489,8.12803053 L65.2971298,7.95654962 L64.3861374,6.44454962 C64.0514198,5.8888855 64.1956947,5.29777099 64.8181374,4.67285496 L65.8148702,3.672 C65.8544427,3.63160305 65.9006107,3.61264122 65.9517252,3.61264122 C66.0028397,3.61264122 66.0481832,3.63160305 66.0877557,3.67117557 L68.232916,5.80891603 C68.2724885,5.84848855 68.2914504,5.89300763 68.2914504,5.94329771 C68.290626,5.99523664 68.2708397,6.03975573 68.2312672,6.07932824 L65.6598779,8.66061069 C65.6203053,8.70018321 65.5749618,8.71996947 65.5246718,8.72161832 C65.4735573,8.72161832 65.4282137,8.70183206 65.3886412,8.66225954 Z M66.0143817,7.23682443 L67.073771,6.17331298 L65.7241832,4.82949618 L65.3276336,5.22769466 C65.1149313,5.44039695 65.0885496,5.68360305 65.2476641,5.95648855 L66.0143817,7.23682443 Z" id="Shape"></path>
                                <path d="M66.2897405,3.44280916 C66.2724275,3.43703817 66.2584122,3.42879389 66.2476947,3.41972519 C66.2254351,3.40241221 66.2105954,3.37603053 66.2048244,3.34470229 C66.1949313,3.29606107 66.2064733,3.25236641 66.2378015,3.21032061 L66.6516641,2.70741985 C66.6904122,2.66042748 66.7415267,2.62827481 66.8074809,2.61178626 C66.8742595,2.59447328 66.9352672,2.59859542 66.9921527,2.6249771 L68.2708397,3.14683969 C68.5865954,3.27380153 68.8256794,3.33645802 68.9880916,3.33563359 C69.1513282,3.33316031 69.2791145,3.27709924 69.3698015,3.16580153 L68.0754504,1.30754198 C68.0391756,1.25642748 68.0210382,1.19871756 68.0210382,1.13606107 C68.0210382,1.07258015 68.04,1.01734351 68.0779237,0.970351145 L68.4967328,0.461679389 C68.5288855,0.42210687 68.5709313,0.403145038 68.6195725,0.405618321 C68.653374,0.407267176 68.682229,0.417984733 68.7061374,0.436946565 C68.716855,0.44519084 68.7250992,0.454259542 68.7333435,0.467450382 L70.4613435,2.94238168 C70.7663817,3.3809771 70.9362137,3.75279389 70.9691908,4.05865649 C71.0029924,4.36451908 70.9048855,4.65719084 70.6765191,4.93584733 C70.4761832,5.17905344 70.2890382,5.37444275 70.115084,5.52119084 C70.0730382,5.55993893 70.0268702,5.58054962 69.9765802,5.58467176 C69.9254656,5.58879389 69.881771,5.57560305 69.8454962,5.54592366 L69.580855,5.32827481 C69.5371603,5.29282443 69.5132519,5.24912977 69.5074809,5.19966412 C69.5017099,5.14854962 69.5165496,5.10238168 69.5528244,5.05868702 L69.625374,4.96964885 C69.6558779,4.93337405 69.7028702,4.88555725 69.768,4.8270229 C69.8314809,4.76848855 69.8801221,4.71819847 69.9130992,4.67862595 C70.0994198,4.45273282 70.0672672,4.16170992 69.8166412,3.80555725 C69.5932214,4.07844275 69.3228092,4.23920611 69.0095267,4.28784733 C68.6945954,4.33566412 68.2724885,4.25322137 67.7456794,4.04051908 L66.2897405,3.44280916 Z" id="Path"></path>
                            </g>
                        </g>
                    </g>
                    <path d="M112.192,40.28 L114.16,32.84 C114.816,30.36 117.072,29.8 119.344,29.8 L123.552,29.8 C123.936,29.8 124.224,30.136 124.224,30.52 L124.224,40.28 C124.224,40.68 123.888,41 123.488,41 L122.016,41 C121.6,41 121.28,40.68 121.28,40.264 L121.28,38.296 L115.728,38.296 L115.2,40.264 C115.088,40.68 114.688,41 114.272,41 L112.736,41 C112.32,41 112.08,40.68 112.192,40.28 Z M116.992,33.576 L116.304,36.088 L121.28,36.088 L121.28,32.008 L119.056,32.008 C118.048,32.008 117.248,32.616 116.992,33.576 Z M128.672,41 L127.2,41 C126.8,41 126.464,40.664 126.464,40.248 L126.464,30.536 C126.464,30.12 126.8,29.784 127.2,29.784 L128.672,29.784 C129.072,29.784 129.408,30.12 129.408,30.536 L129.408,34.28 L131.088,34.28 C132,34.28 132.656,33.816 133.28,32.696 L134.496,30.536 C134.784,30.024 135.216,29.784 135.616,29.784 L137.424,29.784 C137.824,29.784 137.904,30.104 137.664,30.536 L135.968,33.608 C135.568,34.328 135.04,35.08 133.952,35.336 C134.72,35.496 135.52,36.472 135.968,37.16 L137.92,40.264 C138.176,40.68 138.064,41 137.648,41 L135.856,41 C135.456,41 134.912,40.68 134.656,40.264 L133.28,38.088 C132.688,37.144 132.096,36.488 131.088,36.488 L129.408,36.488 L129.408,40.28 C129.408,40.68 129.072,41 128.672,41 Z M138.256,40.28 L140.224,32.84 C140.88,30.36 143.136,29.8 145.408,29.8 L149.616,29.8 C150,29.8 150.288,30.136 150.288,30.52 L150.288,40.28 C150.288,40.68 149.952,41 149.552,41 L148.08,41 C147.664,41 147.344,40.68 147.344,40.264 L147.344,38.296 L141.792,38.296 L141.264,40.264 C141.152,40.68 140.752,41 140.336,41 L138.8,41 C138.384,41 138.144,40.68 138.256,40.28 Z M143.056,33.576 L142.368,36.088 L147.344,36.088 L147.344,32.008 L145.12,32.008 C144.112,32.008 143.312,32.616 143.056,33.576 Z M152.752,38.792 L154.208,32.872 C154.816,30.376 157.008,29.8 159.28,29.8 L163.504,29.8 C163.904,29.8 164.24,30.12 164.24,30.52 L164.24,40.28 C164.24,40.68 163.904,41 163.504,41 L152.144,41 C151.744,41 151.408,40.664 151.408,40.264 L151.408,39.512 C151.408,39.112 151.744,38.792 152.144,38.792 L152.752,38.792 Z M157.072,33.544 L155.76,38.792 L161.296,38.792 L161.296,32.008 L158.96,32.008 C157.968,32.008 157.296,32.6 157.072,33.544 Z M176.224,29.8 C176.624,29.8 176.96,30.12 176.96,30.536 L176.96,31.272 C176.96,31.688 176.624,32.008 176.224,32.008 L169.424,32.008 L169.424,34.28 L175.28,34.28 C175.68,34.28 176.016,34.616 176.016,35.016 L176.016,35.752 C176.016,36.152 175.68,36.488 175.28,36.488 L169.424,36.488 L169.424,38.792 L176.208,38.792 C176.608,38.792 176.928,39.112 176.928,39.512 L176.928,40.264 C176.928,40.664 176.608,41 176.192,41 L167.216,41 C166.8,41 166.48,40.664 166.48,40.248 L166.48,30.52 C166.48,30.12 166.816,29.8 167.216,29.8 L176.224,29.8 Z M186.112,41 L184.992,41 C184.592,41 184.176,40.68 184.032,40.296 L181.28,32.616 L181.28,40.248 C181.28,40.664 180.96,41 180.544,41 L179.136,41 C178.72,41 178.4,40.664 178.4,40.248 L178.4,30.552 C178.4,30.136 178.72,29.8 179.12,29.8 L182.304,29.8 C182.72,29.8 183.12,30.136 183.248,30.536 L185.552,37.208 L187.856,30.536 C187.984,30.136 188.384,29.8 188.8,29.8 L191.984,29.8 C192.384,29.8 192.704,30.136 192.704,30.552 L192.704,40.248 C192.704,40.664 192.384,41 191.968,41 L190.56,41 C190.144,41 189.824,40.664 189.824,40.248 L189.824,32.616 L187.072,40.296 C186.928,40.68 186.512,41 186.112,41 Z M205.6,41 L204.224,41 C203.824,41 203.488,40.664 203.488,40.264 L203.488,33.016 L199.408,40.264 C199.184,40.664 198.688,41 198.272,41 L195.68,41 C195.264,41 194.944,40.664 194.944,40.264 L194.944,30.536 C194.944,30.12 195.264,29.8 195.68,29.8 L197.056,29.8 C197.456,29.8 197.792,30.12 197.792,30.52 L197.792,38.344 L202.24,30.536 C202.464,30.152 202.928,29.8 203.312,29.8 L205.616,29.8 C206.016,29.8 206.336,30.136 206.336,30.536 L206.336,40.264 C206.336,40.664 206,41 205.6,41 Z M210.208,36.712 C209.04,36.2 208,35.24 208,33.448 C208,31.032 209.92,29.8 212.24,29.8 L218.352,29.8 C218.736,29.8 219.056,30.12 219.056,30.52 L219.056,40.28 C219.056,40.68 218.72,41 218.32,41 L216.848,41 C216.432,41 216.112,40.664 216.112,40.264 L216.112,37.032 L213.312,37.032 L211.44,40.28 C211.216,40.68 210.8,41 210.304,41 L208.336,41 C208,41 207.824,40.632 208.048,40.264 L210.208,36.712 Z M212.24,34.76 L216.112,34.76 L216.112,32.008 L212.24,32.008 C211.344,32.008 210.944,32.472 210.944,33.384 C210.944,34.296 211.344,34.76 212.24,34.76 Z M115.232,57.648 L115.488,57.648 C115.92,57.648 116.336,57.792 116.8,57.792 L116.96,57.792 C117.984,57.792 118.704,57.12 119.088,55.76 L118.416,55.76 C115.696,55.76 114.464,54.656 113.456,52.352 L112.224,49.536 C112.048,49.12 112.256,48.8 112.656,48.8 L114.304,48.8 C114.784,48.8 115.184,49.104 115.344,49.504 L116.24,51.68 C116.736,52.864 117.456,53.552 118.832,53.552 L119.792,53.552 L121.2,49.52 C121.36,49.056 121.776,48.8 122.176,48.8 L123.76,48.8 C124.16,48.8 124.384,49.12 124.256,49.504 L121.712,56.8 C121.056,58.688 119.824,60 117.12,60 L115.232,60 C114.816,60 114.496,59.664 114.496,59.264 L114.496,58.384 C114.496,57.968 114.816,57.648 115.232,57.648 Z M124.944,54.4 C124.944,50.512 126.912,48.736 130.736,48.736 L132.48,48.736 C134.656,48.736 136.976,49.904 136.976,52.176 C136.976,52.896 136.384,53.04 136.176,53.04 L135.248,53.04 C134.8,53.04 134.432,52.832 134.128,52.176 C133.776,51.424 133.168,50.944 132.208,50.944 L130.816,50.944 C128.512,50.944 127.888,51.792 127.888,54.4 C127.888,57.008 128.512,57.856 130.816,57.856 L132.368,57.856 C133.328,57.856 133.936,57.376 134.288,56.624 C134.592,55.968 134.96,55.76 135.408,55.76 L136.336,55.76 C136.544,55.76 137.136,55.904 137.136,56.624 C137.136,58.896 134.816,60.064 132.64,60.064 L130.736,60.064 C126.912,60.064 124.944,58.288 124.944,54.4 Z M149.504,60 L148.048,60 C147.648,60 147.312,59.664 147.312,59.264 L147.312,51.008 L141.6,51.008 L141.6,59.264 C141.6,59.664 141.264,60 140.864,60 L139.392,60 C138.976,60 138.656,59.664 138.656,59.264 L138.656,49.536 C138.656,49.12 138.976,48.8 139.376,48.8 L149.52,48.8 C149.92,48.8 150.256,49.12 150.256,49.536 L150.256,59.264 C150.256,59.664 149.92,60 149.504,60 Z M162.24,48.8 C162.64,48.8 162.976,49.12 162.976,49.536 L162.976,50.272 C162.976,50.688 162.64,51.008 162.24,51.008 L155.44,51.008 L155.44,53.28 L161.296,53.28 C161.696,53.28 162.032,53.616 162.032,54.016 L162.032,54.752 C162.032,55.152 161.696,55.488 161.296,55.488 L155.44,55.488 L155.44,57.792 L162.224,57.792 C162.624,57.792 162.944,58.112 162.944,58.512 L162.944,59.264 C162.944,59.664 162.624,60 162.208,60 L153.232,60 C152.816,60 152.496,59.664 152.496,59.248 L152.496,49.52 C152.496,49.12 152.832,48.8 153.232,48.8 L162.24,48.8 Z M170.784,57.792 L170.784,49.52 C170.784,49.12 171.12,48.8 171.52,48.8 L172.992,48.8 C173.392,48.8 173.728,49.12 173.728,49.536 L173.728,57.792 L177.152,57.792 L177.152,49.52 C177.152,49.12 177.488,48.8 177.888,48.8 L179.36,48.8 C179.76,48.8 180.096,49.12 180.096,49.536 L180.096,59.264 C180.096,59.664 179.76,60 179.36,60 L165.152,60 C164.752,60 164.416,59.664 164.416,59.264 L164.416,49.536 C164.416,49.12 164.752,48.8 165.152,48.8 L166.624,48.8 C167.024,48.8 167.36,49.12 167.36,49.52 L167.36,57.792 L170.784,57.792 Z M190.656,59.28 L190.656,55.264 L185.28,55.264 L185.28,59.28 C185.28,59.68 184.944,60 184.544,60 L183.088,60 C182.672,60 182.336,59.664 182.336,59.264 L182.336,49.536 C182.336,49.12 182.672,48.8 183.088,48.8 L184.544,48.8 C184.944,48.8 185.28,49.12 185.28,49.536 L185.28,53.056 L190.656,53.056 L190.656,49.536 C190.656,49.12 190.992,48.8 191.392,48.8 L192.848,48.8 C193.264,48.8 193.6,49.12 193.6,49.536 L193.6,59.264 C193.6,59.664 193.264,60 192.848,60 L191.392,60 C190.992,60 190.656,59.68 190.656,59.28 Z M201.488,50.672 C199.088,50.672 198.144,52 198.144,54.4 C198.144,56.8 199.088,58.128 201.488,58.128 C203.888,58.128 204.832,56.8 204.832,54.4 C204.832,52 203.888,50.672 201.488,50.672 Z M195.2,54.4 C195.2,50.24 197.488,48.56 201.488,48.56 C205.488,48.56 207.776,50.24 207.776,54.4 C207.776,58.56 205.488,60.24 201.488,60.24 C197.488,60.24 195.2,58.56 195.2,54.4 Z M209.376,59.28 L209.376,49.536 C209.376,49.12 209.696,48.8 210.112,48.8 L217.664,48.8 C218.08,48.8 218.4,49.12 218.4,49.536 L218.4,50.272 C218.4,50.688 218.08,51.008 217.664,51.008 L212.32,51.008 L212.32,59.28 C212.32,59.68 211.984,60 211.584,60 L210.112,60 C209.712,60 209.376,59.68 209.376,59.28 Z M225.328,50.672 C222.928,50.672 221.984,52 221.984,54.4 C221.984,56.8 222.928,58.128 225.328,58.128 C227.728,58.128 228.672,56.8 228.672,54.4 C228.672,52 227.728,50.672 225.328,50.672 Z M219.04,54.4 C219.04,50.24 221.328,48.56 225.328,48.56 C229.328,48.56 231.616,50.24 231.616,54.4 C231.616,58.56 229.328,60.24 225.328,60.24 C221.328,60.24 219.04,58.56 219.04,54.4 Z M119.92,74.104 L116.064,74.104 L116.064,76.792 L119.92,76.792 C120.768,76.792 121.232,76.344 121.232,75.448 C121.232,74.552 120.768,74.104 119.92,74.104 Z M116.064,71.896 L119.92,71.896 C122.32,71.896 124.176,72.984 124.176,75.448 C124.176,77.912 122.32,79 119.92,79 L113.824,79 C113.424,79 113.12,78.68 113.12,78.28 L113.12,68.536 C113.12,68.12 113.44,67.8 113.856,67.8 L122.656,67.8 C123.056,67.8 123.392,68.12 123.392,68.536 L123.392,69.272 C123.392,69.672 123.072,70.008 122.672,70.008 L116.064,70.008 L116.064,71.896 Z M136.432,79 L135.056,79 C134.656,79 134.32,78.664 134.32,78.264 L134.32,71.016 L130.24,78.264 C130.016,78.664 129.52,79 129.104,79 L126.512,79 C126.096,79 125.776,78.664 125.776,78.264 L125.776,68.536 C125.776,68.12 126.096,67.8 126.512,67.8 L127.888,67.8 C128.288,67.8 128.624,68.12 128.624,68.52 L128.624,76.344 L133.072,68.536 C133.296,68.152 133.76,67.8 134.144,67.8 L136.448,67.8 C136.848,67.8 137.168,68.136 137.168,68.536 L137.168,78.264 C137.168,78.664 136.832,79 136.432,79 Z M145.376,69.944 L143.472,69.944 C142.752,69.944 142.08,70.2 141.728,70.904 C141.472,71.432 141.12,71.64 140.672,71.64 L139.744,71.64 C139.536,71.64 138.944,71.496 138.944,70.776 C138.944,68.904 141.264,67.736 143.2,67.736 L145.6,67.736 C148.048,67.736 150.144,68.504 150.144,71.16 C150.144,72.008 149.808,72.84 149.072,73.4 C149.968,73.96 150.304,74.696 150.304,75.656 C150.304,78.168 148.608,79.064 145.936,79.064 L142.944,79.064 C141.008,79.064 138.688,77.896 138.688,75.944 C138.688,75.224 139.28,75.08 139.488,75.08 L140.416,75.08 C140.864,75.08 141.232,75.288 141.536,75.944 C141.808,76.52 142.496,76.856 143.216,76.856 L145.664,76.856 C146.736,76.856 147.36,76.568 147.36,75.656 C147.36,74.744 146.736,74.456 145.664,74.456 L143.648,74.456 C143.248,74.456 142.912,74.136 142.912,73.72 L142.912,73.08 C142.912,72.696 143.232,72.344 143.616,72.344 L145.376,72.344 C146.592,72.344 147.2,72.024 147.2,71.144 C147.2,70.264 146.592,69.944 145.376,69.944 Z M160.224,78.28 L160.224,74.264 L154.848,74.264 L154.848,78.28 C154.848,78.68 154.512,79 154.112,79 L152.656,79 C152.24,79 151.904,78.664 151.904,78.264 L151.904,68.536 C151.904,68.12 152.24,67.8 152.656,67.8 L154.112,67.8 C154.512,67.8 154.848,68.12 154.848,68.536 L154.848,72.056 L160.224,72.056 L160.224,68.536 C160.224,68.12 160.56,67.8 160.96,67.8 L162.416,67.8 C162.832,67.8 163.168,68.12 163.168,68.536 L163.168,78.264 C163.168,78.664 162.832,79 162.416,79 L160.96,79 C160.56,79 160.224,78.68 160.224,78.28 Z M175.152,67.8 C175.552,67.8 175.888,68.12 175.888,68.536 L175.888,69.272 C175.888,69.688 175.552,70.008 175.152,70.008 L168.352,70.008 L168.352,72.28 L174.208,72.28 C174.608,72.28 174.944,72.616 174.944,73.016 L174.944,73.752 C174.944,74.152 174.608,74.488 174.208,74.488 L168.352,74.488 L168.352,76.792 L175.136,76.792 C175.536,76.792 175.856,77.112 175.856,77.512 L175.856,78.264 C175.856,78.664 175.536,79 175.12,79 L166.144,79 C165.728,79 165.408,78.664 165.408,78.248 L165.408,68.52 C165.408,68.12 165.744,67.8 166.144,67.8 L175.152,67.8 Z M176.688,73.4 C176.688,69.512 178.656,67.736 182.48,67.736 L184.224,67.736 C186.4,67.736 188.72,68.904 188.72,71.176 C188.72,71.896 188.128,72.04 187.92,72.04 L186.992,72.04 C186.544,72.04 186.176,71.832 185.872,71.176 C185.52,70.424 184.912,69.944 183.952,69.944 L182.56,69.944 C180.256,69.944 179.632,70.792 179.632,73.4 C179.632,76.008 180.256,76.856 182.56,76.856 L184.112,76.856 C185.072,76.856 185.68,76.376 186.032,75.624 C186.336,74.968 186.704,74.76 187.152,74.76 L188.08,74.76 C188.288,74.76 188.88,74.904 188.88,75.624 C188.88,77.896 186.56,79.064 184.384,79.064 L182.48,79.064 C178.656,79.064 176.688,77.288 176.688,73.4 Z M189.472,78.28 L191.44,70.84 C192.096,68.36 194.352,67.8 196.624,67.8 L200.832,67.8 C201.216,67.8 201.504,68.136 201.504,68.52 L201.504,78.28 C201.504,78.68 201.168,79 200.768,79 L199.296,79 C198.88,79 198.56,78.68 198.56,78.264 L198.56,76.296 L193.008,76.296 L192.48,78.264 C192.368,78.68 191.968,79 191.552,79 L190.016,79 C189.6,79 189.36,78.68 189.472,78.28 Z M194.272,71.576 L193.584,74.088 L198.56,74.088 L198.56,70.008 L196.336,70.008 C195.328,70.008 194.528,70.616 194.272,71.576 Z" id="" fill="#11558F" fill-rule="nonzero"></path>
                </g>
            </g>
        </g>
    </g>
</svg>