<svg width="16" height="16" viewBox="0 0 16 16" fill="none" xmlns="http://www.w3.org/2000/svg">
<path d="M11.0785 12.0213L11.5499 11.5499L11.128 11.128L10.6621 11.5007L11.0785 12.0213ZM13.5286 14.4714L13.0572 14.9428L13.0572 14.9428L13.5286 14.4714ZM14.4714 14.4714L14.9428 14.9428L14.9428 14.9428L14.4714 14.4714ZM14.4714 13.5286L14.9428 13.0572L14.9428 13.0572L14.4714 13.5286ZM12.0213 11.0785L11.5007 10.6621L11.128 11.128L11.5499 11.5499L12.0213 11.0785ZM10.6945 10.5707L11.1006 11.0994L11.1401 11.0691L11.1746 11.0333L10.6945 10.5707ZM10.5707 10.6945L11.0333 11.1746L11.0691 11.1401L11.0994 11.1006L10.5707 10.6945ZM2 7.33333C2 4.38781 4.38781 2 7.33333 2V0.66667C3.65143 0.66667 0.66667 3.65143 0.66667 7.33333H2ZM7.33333 12.6667C4.38781 12.6667 2 10.2789 2 7.33333H0.66667C0.66667 11.0153 3.65143 14 7.33333 14V12.6667ZM10.6621 11.5007C9.74953 12.2307 8.59328 12.6667 7.33333 12.6667V14C8.90678 14 10.3545 13.4541 11.4949 12.5419L10.6621 11.5007ZM14 14L11.5499 11.5499L10.6071 12.4927L13.0572 14.9428L14 14ZM14 14H14L13.0572 14.9428C13.5779 15.4635 14.4221 15.4635 14.9428 14.9428L14 14ZM14 14V14L14.9428 14.9428C15.4635 14.4221 15.4635 13.5779 14.9428 13.0572L14 14ZM11.5499 11.5499L14 14L14.9428 13.0572L12.4927 10.6071L11.5499 11.5499ZM12.6667 7.33333C12.6667 8.59328 12.2307 9.74953 11.5007 10.6621L12.5419 11.4949C13.4541 10.3545 14 8.90678 14 7.33333H12.6667ZM7.33333 2C10.2789 2 12.6667 4.38781 12.6667 7.33333H14C14 3.65143 11.0153 0.66667 7.33333 0.66667V2ZM11.1746 11.0333C12.0979 10.0749 12.6667 8.76986 12.6667 7.33333H11.3334C11.3334 8.41121 10.9079 9.38832 10.2144 10.1082L11.1746 11.0333ZM12.6667 7.33333C12.6667 4.38781 10.2789 2 7.33333 2V3.33333C9.54253 3.33333 11.3334 5.12419 11.3334 7.33333H12.6667ZM7.33333 2C4.38781 2 2 4.38781 2 7.33333H3.33333C3.33333 5.12419 5.12419 3.33333 7.33333 3.33333V2ZM2 7.33333C2 10.2789 4.38781 12.6667 7.33333 12.6667V11.3334C5.12419 11.3334 3.33333 9.54253 3.33333 7.33333H2ZM7.33333 12.6667C8.76986 12.6667 10.0749 12.0979 11.0333 11.1746L10.1082 10.2144C9.38832 10.9079 8.41121 11.3334 7.33333 11.3334V12.6667ZM11.0994 11.1006L11.1 11.1L10.1572 10.1572C10.1157 10.1987 10.0772 10.2426 10.042 10.2884L11.0994 11.1006ZM11.1 11.1L11.1006 11.0994L10.2884 10.042C10.2426 10.0772 10.1987 10.1157 10.1572 10.1572L11.1 11.1Z" fill="#11558F"/>
</svg>
